<?xml version="1.0" encoding="utf-8"?>
<!-- Generator: Adobe Illustrator 25.1.0, SVG Export Plug-In . SVG Version: 6.00 Build 0)  -->
<svg version="1.1" id="레이어_2_1_" xmlns="http://www.w3.org/2000/svg" xmlns:xlink="http://www.w3.org/1999/xlink" x="0px"
	 y="0px" viewBox="0 0 81.5 41.7" style="enable-background:new 0 0 81.5 41.7;" xml:space="preserve">
<style type="text/css">
	.st0{fill:#FFFFFF;}
	.st1{clip-path:url(#SVGID_4_);}
	.st2{clip-path:url(#SVGID_7_);}
	.st3{clip-path:url(#SVGID_9_);fill:#FFFFFF;}
	.st4{clip-path:url(#SVGID_11_);fill:#FFFFFF;}
	.st5{clip-path:url(#SVGID_13_);fill:#FFFFFF;}
	.st6{clip-path:url(#SVGID_15_);}
	.st7{clip-path:url(#SVGID_17_);}
	.st8{clip-path:url(#SVGID_19_);fill:#FFFFFF;}
	.st9{clip-path:url(#SVGID_21_);fill:#FFFFFF;}
	.st10{clip-path:url(#SVGID_23_);fill:#FFFFFF;}
	.st11{clip-path:url(#SVGID_25_);fill:#FFFFFF;}
	.st12{clip-path:url(#SVGID_27_);fill:#FFFFFF;}
	.st13{clip-path:url(#SVGID_29_);fill:#FFFFFF;}
	.st14{clip-path:url(#SVGID_31_);fill:#FFFFFF;}
	.st15{clip-path:url(#SVGID_33_);fill:#FFFFFF;}
	.st16{clip-path:url(#SVGID_35_);fill:#FFFFFF;}
	.st17{clip-path:url(#SVGID_37_);fill:#FFFFFF;}
	.st18{clip-path:url(#SVGID_39_);}
	.st19{clip-path:url(#SVGID_41_);fill:#FFFFFF;}
	.st20{clip-path:url(#SVGID_43_);fill:#FFFFFF;}
	.st21{clip-path:url(#SVGID_45_);fill:#FFFFFF;}
	.st22{clip-path:url(#SVGID_47_);fill:#FFFFFF;}
	.st23{clip-path:url(#SVGID_49_);}
	.st24{clip-path:url(#SVGID_51_);fill:#FFFFFF;}
	.st25{clip-path:url(#SVGID_53_);fill:#FFFFFF;}
	.st26{clip-path:url(#SVGID_55_);fill:#FFFFFF;}
	.st27{clip-path:url(#SVGID_57_);}
	.st28{clip-path:url(#SVGID_59_);fill:#FFFFFF;}
	.st29{clip-path:url(#SVGID_61_);fill:#FFFFFF;}
	.st30{clip-path:url(#SVGID_63_);fill:#FFFFFF;}
	.st31{clip-path:url(#SVGID_65_);}
	.st32{clip-path:url(#SVGID_67_);fill:#FFFFFF;}
	.st33{clip-path:url(#SVGID_69_);fill:#FFFFFF;}
	.st34{clip-path:url(#SVGID_71_);fill:#FFFFFF;}
	.st35{clip-path:url(#SVGID_73_);}
	.st36{clip-path:url(#SVGID_75_);}
	.st37{clip-path:url(#SVGID_77_);}
	.st38{clip-path:url(#SVGID_79_);fill:#FFFFFF;}
	.st39{clip-path:url(#SVGID_81_);fill:#FFFFFF;}
	.st40{clip-path:url(#SVGID_83_);fill:#FFFFFF;}
	.st41{clip-path:url(#SVGID_85_);}
	.st42{clip-path:url(#SVGID_87_);fill:#FFFFFF;}
	.st43{clip-path:url(#SVGID_89_);fill:#FFFFFF;}
	.st44{clip-path:url(#SVGID_91_);fill:#FFFFFF;}
	.st45{clip-path:url(#SVGID_93_);fill:#FFFFFF;}
	.st46{clip-path:url(#SVGID_95_);fill:#FFFFFF;}
	.st47{clip-path:url(#SVGID_97_);fill:#FFFFFF;}
	.st48{clip-path:url(#SVGID_99_);fill:#FFFFFF;}
	.st49{clip-path:url(#SVGID_101_);}
	.st50{clip-path:url(#SVGID_103_);fill:#FFFFFF;}
	.st51{clip-path:url(#SVGID_105_);fill:#FFFFFF;}
	.st52{clip-path:url(#SVGID_107_);fill:#FFFFFF;}
	.st53{clip-path:url(#SVGID_109_);fill:#FFFFFF;}
	.st54{clip-path:url(#SVGID_111_);fill:#FFFFFF;}
	.st55{clip-path:url(#SVGID_113_);}
	.st56{clip-path:url(#SVGID_115_);fill:#FFFFFF;}
	.st57{clip-path:url(#SVGID_117_);fill:#FFFFFF;}
	.st58{clip-path:url(#SVGID_119_);fill:#FFFFFF;}
	.st59{clip-path:url(#SVGID_121_);}
	.st60{clip-path:url(#SVGID_123_);fill:#FFFFFF;}
	.st61{clip-path:url(#SVGID_125_);fill:#FFFFFF;}
	.st62{clip-path:url(#SVGID_127_);fill:#FFFFFF;}
	.st63{clip-path:url(#SVGID_129_);fill:#FFFFFF;}
	.st64{clip-path:url(#SVGID_131_);}
	.st65{clip-path:url(#SVGID_133_);}
	.st66{clip-path:url(#SVGID_135_);}
	.st67{clip-path:url(#SVGID_137_);}
	.st68{clip-path:url(#SVGID_139_);}
	.st69{clip-path:url(#SVGID_141_);fill:#FFFFFF;}
	.st70{clip-path:url(#SVGID_143_);}
	.st71{clip-path:url(#SVGID_145_);}
	.st72{clip-path:url(#SVGID_147_);}
	.st73{clip-path:url(#SVGID_149_);fill:#FFFFFF;}
	.st74{clip-path:url(#SVGID_151_);}
	.st75{clip-path:url(#SVGID_153_);}
	.st76{clip-path:url(#SVGID_155_);fill:#FFFFFF;}
	.st77{clip-path:url(#SVGID_157_);fill:#FFFFFF;}
	.st78{clip-path:url(#SVGID_159_);fill:#FFFFFF;}
	.st79{clip-path:url(#SVGID_161_);fill:#FFFFFF;}
	.st80{clip-path:url(#SVGID_163_);fill:#FFFFFF;}
	.st81{clip-path:url(#SVGID_165_);fill:#FFFFFF;}
	.st82{clip-path:url(#SVGID_167_);fill:#FFFFFF;}
	.st83{clip-path:url(#SVGID_169_);fill:#FFFFFF;}
	.st84{clip-path:url(#SVGID_171_);fill:#FFFFFF;}
</style>
<g>
	<g>
		<g>
			<path id="SVGID_1_" class="st0" d="M40.8,41.7c22.5,0,40.8-9.3,40.8-20.8C81.5,9.3,63.3,0,40.8,0C18.2,0,0,9.3,0,20.8
				C0,32.3,18.2,41.7,40.8,41.7 M48.4,31.5c-0.7,1.6-1.8,4.9-4.5,6.3c-0.8,0.4-1.8,0.6-2.7,0.6c-0.2,0-0.3,0-0.4,0
				c-7.4,0-14.3-1-20-2.7c-0.4-0.1-1.4-0.4-1.4-0.9c0-0.3,0.1-0.5,0.3-0.7c0.1-0.1,0.2-0.2,0.4-0.3c1.3-1.1,5.4-4.1,13.1-7
				c2.7-1,6-2.3,9.6-3C44.8,23.2,52.5,22.1,48.4,31.5 M69,10.5c0.1-0.3,0.3-0.5,0.7-0.5c0.2,0,0.4,0,0.8,0.3
				c4.8,2.9,7.6,6.6,7.6,10.6c0,7.2-9.2,13.4-22.5,16.1c-0.9,0.2-1.4,0.2-1.6-0.1c-0.1-0.1-0.2-0.4,0-0.6c0.1-0.2,0.2-0.3,0.3-0.5
				c7.2-8.5,12.7-21,14.3-24.6C68.8,10.9,68.9,10.6,69,10.5 M33.2,10.2c0.7-1.6,1.8-4.9,4.5-6.3c0.8-0.4,1.8-0.6,2.7-0.6
				c0.2,0,0.3,0,0.4,0c7.4,0,14.3,1,20.1,2.8c0.4,0.1,1.3,0.3,1.3,0.9c0,0.3-0.2,0.5-0.3,0.7c-0.1,0.1-0.2,0.2-0.4,0.3
				c-1.3,1.1-5.4,4.1-13.1,7c-2.7,1.1-6.1,2.3-9.6,3.1C36.8,18.4,29.2,19.6,33.2,10.2 M25.8,4.8c0.9-0.2,1.5-0.2,1.7,0.1
				c0.1,0.1,0.2,0.4,0,0.6c-0.1,0.2-0.2,0.3-0.4,0.5C20,14.4,14.5,27,12.9,30.6c-0.1,0.2-0.2,0.5-0.3,0.7c-0.2,0.3-0.4,0.5-0.7,0.5
				c-0.2,0-0.4,0-0.8-0.3c-4.8-2.9-7.7-6.6-7.7-10.6C3.3,13.6,12.6,7.5,25.8,4.8"/>
		</g>
		<g>
			<defs>
				<path id="SVGID_2_" d="M40.8,41.7c22.5,0,40.8-9.3,40.8-20.8C81.5,9.3,63.3,0,40.8,0C18.2,0,0,9.3,0,20.8
					C0,32.3,18.2,41.7,40.8,41.7 M48.4,31.5c-0.7,1.6-1.8,4.9-4.5,6.3c-0.8,0.4-1.8,0.6-2.7,0.6c-0.2,0-0.3,0-0.4,0
					c-7.4,0-14.3-1-20-2.7c-0.4-0.1-1.4-0.4-1.4-0.9c0-0.3,0.1-0.5,0.3-0.7c0.1-0.1,0.2-0.2,0.4-0.3c1.3-1.1,5.4-4.1,13.1-7
					c2.7-1,6-2.3,9.6-3C44.8,23.2,52.5,22.1,48.4,31.5 M69,10.5c0.1-0.3,0.3-0.5,0.7-0.5c0.2,0,0.4,0,0.8,0.3
					c4.8,2.9,7.6,6.6,7.6,10.6c0,7.2-9.2,13.4-22.5,16.1c-0.9,0.2-1.4,0.2-1.6-0.1c-0.1-0.1-0.2-0.4,0-0.6c0.1-0.2,0.2-0.3,0.3-0.5
					c7.2-8.5,12.7-21,14.3-24.6C68.8,10.9,68.9,10.6,69,10.5 M33.2,10.2c0.7-1.6,1.8-4.9,4.5-6.3c0.8-0.4,1.8-0.6,2.7-0.6
					c0.2,0,0.3,0,0.4,0c7.4,0,14.3,1,20.1,2.8c0.4,0.1,1.3,0.3,1.3,0.9c0,0.3-0.2,0.5-0.3,0.7c-0.1,0.1-0.2,0.2-0.4,0.3
					c-1.3,1.1-5.4,4.1-13.1,7c-2.7,1.1-6.1,2.3-9.6,3.1C36.8,18.4,29.2,19.6,33.2,10.2 M25.8,4.8c0.9-0.2,1.5-0.2,1.7,0.1
					c0.1,0.1,0.2,0.4,0,0.6c-0.1,0.2-0.2,0.3-0.4,0.5C20,14.4,14.5,27,12.9,30.6c-0.1,0.2-0.2,0.5-0.3,0.7c-0.2,0.3-0.4,0.5-0.7,0.5
					c-0.2,0-0.4,0-0.8-0.3c-4.8-2.9-7.7-6.6-7.7-10.6C3.3,13.6,12.6,7.5,25.8,4.8"/>
			</defs>
			<use xlink:href="#SVGID_2_"  style="overflow:visible;fill:#FFFFFF;"/>
			<clipPath id="SVGID_4_">
				<use xlink:href="#SVGID_2_"  style="overflow:visible;"/>
			</clipPath>
			<g class="st1">
				<g>
					<path id="SVGID_3_" class="st0" d="M40.8,41.2c-22.2,0-40.3-9.2-40.3-20.4C0.4,9.6,18.5,0.4,40.8,0.4s40.3,9.2,40.3,20.4
						C81.1,32.1,63,41.2,40.8,41.2 M45.3,23c-0.8,0-1.7,0.1-2.7,0.3c-3.5,0.7-6.9,2-9.6,3l-0.1,0c-8.2,3.1-12.2,6.2-13.2,7.1
						l-0.2,0.2c-0.1,0.1-0.2,0.1-0.2,0.2c-0.2,0.2-0.5,0.5-0.5,1c0,0.8,1,1.2,1.6,1.3l0.1,0c6,1.8,13,2.7,20.2,2.7
						c0.1,0,0.2,0,0.2,0c0.1,0,0.1,0,0.2,0c1,0,2.1-0.2,2.9-0.7c2.6-1.3,3.8-4.2,4.5-6l0.2-0.5c1.4-3.1,1.6-5.5,0.6-7
						C48.7,23.5,47.3,23,45.3,23 M69.8,9.6l-0.1,0c-0.4,0-0.8,0.3-1,0.7c-0.1,0.2-0.3,0.5-0.3,0.6c-2.5,5.9-7.7,16.9-14.2,24.5
						c-0.2,0.2-0.3,0.4-0.4,0.6c-0.3,0.5-0.2,0.9,0.1,1.1c0.2,0.2,0.5,0.3,0.9,0.3c0.3,0,0.6,0,1.1-0.1c13.9-2.8,22.8-9.3,22.8-16.5
						c0-4-2.7-7.8-7.8-10.9C70.4,9.6,70.1,9.6,69.8,9.6 M26.9,4.2c-0.3,0-0.7,0.1-1.1,0.1C11.9,7.2,2.9,13.6,2.9,20.8
						c0,4,2.7,7.8,7.9,10.9c0.4,0.2,0.7,0.3,1.1,0.3c0.6,0,0.9-0.4,1.1-0.7c0.1-0.1,0.2-0.4,0.3-0.6l0.1-0.1
						c4.5-10.4,9.4-18.9,14.2-24.5c0.2-0.2,0.3-0.4,0.4-0.5c0.3-0.5,0.2-0.9-0.1-1.1C27.7,4.3,27.4,4.2,26.9,4.2 M40.4,2.9
						c-1.1,0-2.1,0.3-2.9,0.7c-2.6,1.3-3.8,4.2-4.5,6L32.8,10c-1.4,3.1-1.6,5.5-0.6,7c0.8,1.1,2.1,1.7,4.1,1.7
						c0.8,0,1.7-0.1,2.7-0.3c3.4-0.7,6.6-1.9,9.7-3.1c8.2-3.1,12.2-6.2,13.2-7.1C62,8.1,62.2,8,62.3,7.9c0.2-0.2,0.4-0.5,0.4-0.9
						c0-0.8-1-1.1-1.5-1.2L61,5.6c-6-1.8-13-2.8-20.2-2.8L40.4,2.9L40.4,2.9"/>
				</g>
				<g>
					<defs>
						<path id="SVGID_6_" d="M40.8,41.2c-22.2,0-40.3-9.2-40.3-20.4C0.4,9.6,18.5,0.4,40.8,0.4s40.3,9.2,40.3,20.4
							C81.1,32.1,63,41.2,40.8,41.2 M45.3,23c-0.8,0-1.7,0.1-2.7,0.3c-3.5,0.7-6.9,2-9.6,3l-0.1,0c-8.2,3.1-12.2,6.2-13.2,7.1
							l-0.2,0.2c-0.1,0.1-0.2,0.1-0.2,0.2c-0.2,0.2-0.5,0.5-0.5,1c0,0.8,1,1.2,1.6,1.3l0.1,0c6,1.8,13,2.7,20.2,2.7
							c0.1,0,0.2,0,0.2,0c0.1,0,0.1,0,0.2,0c1,0,2.1-0.2,2.9-0.7c2.6-1.3,3.8-4.2,4.5-6l0.2-0.5c1.4-3.1,1.6-5.5,0.6-7
							C48.7,23.5,47.3,23,45.3,23 M69.8,9.6l-0.1,0c-0.4,0-0.8,0.3-1,0.7c-0.1,0.2-0.3,0.5-0.3,0.6c-2.5,5.9-7.7,16.9-14.2,24.5
							c-0.2,0.2-0.3,0.4-0.4,0.6c-0.3,0.5-0.2,0.9,0.1,1.1c0.2,0.2,0.5,0.3,0.9,0.3c0.3,0,0.6,0,1.1-0.1
							c13.9-2.8,22.8-9.3,22.8-16.5c0-4-2.7-7.8-7.8-10.9C70.4,9.6,70.1,9.6,69.8,9.6 M26.9,4.2c-0.3,0-0.7,0.1-1.1,0.1
							C11.9,7.2,2.9,13.6,2.9,20.8c0,4,2.7,7.8,7.9,10.9c0.4,0.2,0.7,0.3,1.1,0.3c0.6,0,0.9-0.4,1.1-0.7c0.1-0.1,0.2-0.4,0.3-0.6
							l0.1-0.1c4.5-10.4,9.4-18.9,14.2-24.5c0.2-0.2,0.3-0.4,0.4-0.5c0.3-0.5,0.2-0.9-0.1-1.1C27.7,4.3,27.4,4.2,26.9,4.2 M40.4,2.9
							c-1.1,0-2.1,0.3-2.9,0.7c-2.6,1.3-3.8,4.2-4.5,6L32.8,10c-1.4,3.1-1.6,5.5-0.6,7c0.8,1.1,2.1,1.7,4.1,1.7
							c0.8,0,1.7-0.1,2.7-0.3c3.4-0.7,6.6-1.9,9.7-3.1c8.2-3.1,12.2-6.2,13.2-7.1C62,8.1,62.2,8,62.3,7.9c0.2-0.2,0.4-0.5,0.4-0.9
							c0-0.8-1-1.1-1.5-1.2L61,5.6c-6-1.8-13-2.8-20.2-2.8L40.4,2.9L40.4,2.9"/>
					</defs>
					<use xlink:href="#SVGID_6_"  style="overflow:visible;fill:#FFFFFF;"/>
					<clipPath id="SVGID_7_">
						<use xlink:href="#SVGID_6_"  style="overflow:visible;"/>
					</clipPath>
					<g class="st2">
						<g>
							<path id="SVGID_5_" class="st0" d="M40.8,41.2c-22.2,0-40.3-9.1-40.3-20.4C0.5,9.6,18.5,0.5,40.8,0.5S81,9.6,81,20.8
								C81,32.1,63,41.2,40.8,41.2 M45.3,22.9c-0.8,0-1.7,0.1-2.7,0.3c-3.5,0.7-6.9,2-9.6,3l-0.1,0c-8.2,3.1-12.2,6.2-13.2,7.1
								l-0.2,0.2c-0.1,0.1-0.1,0.1-0.2,0.2c-0.2,0.2-0.5,0.5-0.5,1c0,0.8,1,1.1,1.6,1.3l0.1,0c6,1.8,13,2.7,20.1,2.7
								c0.1,0,0.2,0,0.2,0c0.1,0,0.1,0,0.2,0c1,0,2.1-0.2,2.9-0.7c2.6-1.3,3.8-4.2,4.5-6l0.2-0.5c1.4-3.1,1.6-5.5,0.6-7
								C48.7,23.5,47.3,22.9,45.3,22.9 M69.8,9.6l-0.1,0c-0.4,0-0.8,0.3-1,0.7c-0.1,0.2-0.3,0.5-0.3,0.6
								c-2.5,5.9-7.7,16.8-14.2,24.5c-0.2,0.2-0.3,0.4-0.4,0.5c-0.3,0.5-0.2,0.9,0.1,1.1c0.2,0.2,0.5,0.3,0.9,0.3
								c0.3,0,0.6,0,1.1-0.1c13.8-2.8,22.8-9.3,22.8-16.4c0-4-2.7-7.8-7.8-10.9C70.3,9.7,70,9.6,69.8,9.6 M26.9,4.2
								c-0.3,0-0.7,0-1.1,0.1C11.9,7.2,3,13.7,3,20.8c0,4,2.7,7.7,7.9,10.9c0.4,0.2,0.7,0.3,1.1,0.3c0.6,0,0.9-0.4,1-0.7
								c0.1-0.2,0.2-0.4,0.3-0.6l0.1-0.1c4.5-10.4,9.4-18.8,14.2-24.5c0.2-0.2,0.3-0.4,0.4-0.5c0.3-0.5,0.2-0.9-0.1-1.1
								C27.7,4.4,27.4,4.2,26.9,4.2 M40.4,2.9c-1.1,0-2.1,0.3-2.9,0.7c-2.6,1.3-3.8,4.2-4.5,6L32.8,10c-1.4,3.2-1.6,5.5-0.6,7
								c0.7,1.1,2.1,1.7,4.1,1.7c0.8,0,1.7-0.1,2.7-0.3c3.4-0.7,6.6-1.9,9.6-3.1c8.1-3.1,12.2-6.2,13.2-7.1C62,8.1,62.1,8,62.2,7.9
								c0.2-0.2,0.5-0.5,0.5-0.9c0-0.8-1-1.1-1.5-1.2L61,5.7c-6-1.8-13-2.8-20.2-2.8H40.4L40.4,2.9"/>
						</g>
						<g>
							<defs>
								<path id="SVGID_8_" d="M40.8,41.2c-22.2,0-40.3-9.1-40.3-20.4C0.5,9.6,18.5,0.5,40.8,0.5S81,9.6,81,20.8
									C81,32.1,63,41.2,40.8,41.2 M45.3,22.9c-0.8,0-1.7,0.1-2.7,0.3c-3.5,0.7-6.9,2-9.6,3l-0.1,0c-8.2,3.1-12.2,6.2-13.2,7.1
									l-0.2,0.2c-0.1,0.1-0.1,0.1-0.2,0.2c-0.2,0.2-0.5,0.5-0.5,1c0,0.8,1,1.1,1.6,1.3l0.1,0c6,1.8,13,2.7,20.1,2.7
									c0.1,0,0.2,0,0.2,0c0.1,0,0.1,0,0.2,0c1,0,2.1-0.2,2.9-0.7c2.6-1.3,3.8-4.2,4.5-6l0.2-0.5c1.4-3.1,1.6-5.5,0.6-7
									C48.7,23.5,47.3,22.9,45.3,22.9 M69.8,9.6l-0.1,0c-0.4,0-0.8,0.3-1,0.7c-0.1,0.2-0.3,0.5-0.3,0.6
									c-2.5,5.9-7.7,16.8-14.2,24.5c-0.2,0.2-0.3,0.4-0.4,0.5c-0.3,0.5-0.2,0.9,0.1,1.1c0.2,0.2,0.5,0.3,0.9,0.3
									c0.3,0,0.6,0,1.1-0.1c13.8-2.8,22.8-9.3,22.8-16.4c0-4-2.7-7.8-7.8-10.9C70.3,9.7,70,9.6,69.8,9.6 M26.9,4.2
									c-0.3,0-0.7,0-1.1,0.1C11.9,7.2,3,13.7,3,20.8c0,4,2.7,7.7,7.9,10.9c0.4,0.2,0.7,0.3,1.1,0.3c0.6,0,0.9-0.4,1-0.7
									c0.1-0.2,0.2-0.4,0.3-0.6l0.1-0.1c4.5-10.4,9.4-18.8,14.2-24.5c0.2-0.2,0.3-0.4,0.4-0.5c0.3-0.5,0.2-0.9-0.1-1.1
									C27.7,4.4,27.4,4.2,26.9,4.2 M40.4,2.9c-1.1,0-2.1,0.3-2.9,0.7c-2.6,1.3-3.8,4.2-4.5,6L32.8,10c-1.4,3.2-1.6,5.5-0.6,7
									c0.7,1.1,2.1,1.7,4.1,1.7c0.8,0,1.7-0.1,2.7-0.3c3.4-0.7,6.6-1.9,9.6-3.1c8.1-3.1,12.2-6.2,13.2-7.1C62,8.1,62.1,8,62.2,7.9
									c0.2-0.2,0.5-0.5,0.5-0.9c0-0.8-1-1.1-1.5-1.2L61,5.7c-6-1.8-13-2.8-20.2-2.8H40.4L40.4,2.9"/>
							</defs>
							<use xlink:href="#SVGID_8_"  style="overflow:visible;fill:#FFFFFF;"/>
							<clipPath id="SVGID_9_">
								<use xlink:href="#SVGID_8_"  style="overflow:visible;"/>
							</clipPath>
							<path class="st3" d="M40.8,41.6c22.5,0,40.7-9.3,40.7-20.8C81.4,9.3,63.2,0,40.7,0C18.3,0,0,9.3,0,20.8
								C0.1,32.3,18.3,41.6,40.8,41.6 M48.4,31.5c-0.7,1.6-1.8,4.9-4.5,6.2c-0.8,0.4-1.8,0.6-2.7,0.6c-0.2,0-0.3,0-0.4,0
								c-7.5,0-14.5-1-20.4-2.8l-0.2-0.1c-0.6-0.2-0.9-0.4-0.9-0.8c0-0.3,0.1-0.5,0.3-0.7c0.1-0.1,0.2-0.2,0.4-0.3
								c1.4-1.1,5.4-4.1,13.1-7c2.7-1,6-2.3,9.6-3C44.8,23.2,52.5,22,48.4,31.5 M69,10.5c0.1-0.3,0.3-0.5,0.7-0.5
								c0.2,0,0.4,0,0.8,0.3c4.8,2.9,7.6,6.6,7.6,10.6c0,7.2-9.2,13.3-22.5,16c-0.8,0.2-1.4,0.2-1.6,0c-0.1-0.1-0.2-0.4,0-0.7
								c0.1-0.2,0.2-0.3,0.3-0.5c7.2-8.5,12.7-21,14.2-24.6C68.8,10.9,68.9,10.6,69,10.5 M33.2,10.2c0.7-1.6,1.8-4.9,4.5-6.3
								c0.8-0.4,1.8-0.6,2.7-0.6c0.2,0,0.3,0,0.4,0c7.5,0,14.5,1,20.3,2.8l0.2,0.1c0.5,0.2,0.8,0.4,0.8,0.7c0,0.3-0.1,0.5-0.3,0.7
								c-0.1,0.1-0.2,0.2-0.4,0.3c-1.3,1.1-5.4,4.1-13.1,7c-2.7,1.1-6.1,2.3-9.6,3.1C36.8,18.4,29.2,19.6,33.2,10.2 M25.9,4.8
								c0.9-0.2,1.5-0.2,1.7,0.1c0.1,0.1,0.2,0.4,0,0.6c-0.1,0.2-0.2,0.3-0.4,0.5C20,14.4,14.5,26.9,13,30.5
								c-0.1,0.3-0.2,0.5-0.3,0.7c-0.2,0.3-0.3,0.5-0.7,0.5c-0.2,0-0.4,0-0.8-0.3c-4.8-2.9-7.7-6.6-7.7-10.6
								C3.4,13.7,12.6,7.5,25.9,4.8"/>
						</g>
						<g>
							<defs>
								<path id="SVGID_10_" d="M40.8,41.2c-22.2,0-40.3-9.1-40.3-20.4C0.5,9.6,18.5,0.5,40.8,0.5S81,9.6,81,20.8
									C81,32.1,63,41.2,40.8,41.2 M45.3,22.9c-0.8,0-1.7,0.1-2.7,0.3c-3.5,0.7-6.9,2-9.6,3l-0.1,0c-8.2,3.1-12.2,6.2-13.2,7.1
									l-0.2,0.2c-0.1,0.1-0.1,0.1-0.2,0.2c-0.2,0.2-0.5,0.5-0.5,1c0,0.8,1,1.1,1.6,1.3l0.1,0c6,1.8,13,2.7,20.1,2.7
									c0.1,0,0.2,0,0.2,0c0.1,0,0.1,0,0.2,0c1,0,2.1-0.2,2.9-0.7c2.6-1.3,3.8-4.2,4.5-6l0.2-0.5c1.4-3.1,1.6-5.5,0.6-7
									C48.7,23.5,47.3,22.9,45.3,22.9 M69.8,9.6l-0.1,0c-0.4,0-0.8,0.3-1,0.7c-0.1,0.2-0.3,0.5-0.3,0.6
									c-2.5,5.9-7.7,16.8-14.2,24.5c-0.2,0.2-0.3,0.4-0.4,0.5c-0.3,0.5-0.2,0.9,0.1,1.1c0.2,0.2,0.5,0.3,0.9,0.3
									c0.3,0,0.6,0,1.1-0.1c13.8-2.8,22.8-9.3,22.8-16.4c0-4-2.7-7.8-7.8-10.9C70.3,9.7,70,9.6,69.8,9.6 M26.9,4.2
									c-0.3,0-0.7,0-1.1,0.1C11.9,7.2,3,13.7,3,20.8c0,4,2.7,7.7,7.9,10.9c0.4,0.2,0.7,0.3,1.1,0.3c0.6,0,0.9-0.4,1-0.7
									c0.1-0.2,0.2-0.4,0.3-0.6l0.1-0.1c4.5-10.4,9.4-18.8,14.2-24.5c0.2-0.2,0.3-0.4,0.4-0.5c0.3-0.5,0.2-0.9-0.1-1.1
									C27.7,4.4,27.4,4.2,26.9,4.2 M40.4,2.9c-1.1,0-2.1,0.3-2.9,0.7c-2.6,1.3-3.8,4.2-4.5,6L32.8,10c-1.4,3.2-1.6,5.5-0.6,7
									c0.7,1.1,2.1,1.7,4.1,1.7c0.8,0,1.7-0.1,2.7-0.3c3.4-0.7,6.6-1.9,9.6-3.1c8.1-3.1,12.2-6.2,13.2-7.1C62,8.1,62.1,8,62.2,7.9
									c0.2-0.2,0.5-0.5,0.5-0.9c0-0.8-1-1.1-1.5-1.2L61,5.7c-6-1.8-13-2.8-20.2-2.8H40.4L40.4,2.9"/>
							</defs>
							<use xlink:href="#SVGID_10_"  style="overflow:visible;fill:#FFFFFF;"/>
							<clipPath id="SVGID_11_">
								<use xlink:href="#SVGID_10_"  style="overflow:visible;"/>
							</clipPath>
							<path class="st4" d="M40.8,41.6c22.5,0,40.7-9.3,40.7-20.8C81.4,9.3,63.2,0,40.7,0C18.3,0,0,9.3,0,20.8
								C0.1,32.3,18.3,41.6,40.8,41.6 M48.4,31.5c-0.7,1.6-1.8,4.9-4.5,6.2c-0.8,0.4-1.8,0.6-2.7,0.6c-0.2,0-0.3,0-0.4,0
								c-7.5,0-14.5-1-20.4-2.8l-0.2-0.1c-0.6-0.2-0.9-0.4-0.9-0.8c0-0.3,0.1-0.5,0.3-0.7c0.1-0.1,0.2-0.2,0.4-0.3
								c1.4-1.1,5.4-4.1,13.1-7c2.7-1,6-2.3,9.6-3C44.8,23.2,52.5,22,48.4,31.5 M69,10.5c0.1-0.3,0.3-0.5,0.7-0.5
								c0.2,0,0.4,0,0.8,0.3c4.8,2.9,7.6,6.6,7.6,10.6c0,7.2-9.2,13.3-22.5,16c-0.8,0.2-1.4,0.2-1.6,0c-0.1-0.1-0.2-0.4,0-0.7
								c0.1-0.2,0.2-0.3,0.3-0.5c7.2-8.5,12.7-21,14.2-24.6C68.8,10.9,68.9,10.6,69,10.5 M33.2,10.2c0.7-1.6,1.8-4.9,4.5-6.3
								c0.8-0.4,1.8-0.6,2.7-0.6c0.2,0,0.3,0,0.4,0c7.5,0,14.5,1,20.3,2.8l0.2,0.1c0.5,0.2,0.8,0.4,0.8,0.7c0,0.3-0.1,0.5-0.3,0.7
								c-0.1,0.1-0.2,0.2-0.4,0.3c-1.3,1.1-5.4,4.1-13.1,7c-2.7,1.1-6.1,2.3-9.6,3.1C36.8,18.4,29.2,19.6,33.2,10.2 M25.9,4.8
								c0.9-0.2,1.5-0.2,1.7,0.1c0.1,0.1,0.2,0.4,0,0.6c-0.1,0.2-0.2,0.3-0.4,0.5C20,14.4,14.5,26.9,13,30.5
								c-0.1,0.3-0.2,0.5-0.3,0.7c-0.2,0.3-0.3,0.5-0.7,0.5c-0.2,0-0.4,0-0.8-0.3c-4.8-2.9-7.7-6.6-7.7-10.6
								C3.4,13.7,12.6,7.5,25.9,4.8"/>
						</g>
						<g>
							<defs>
								<path id="SVGID_12_" d="M40.8,41.2c-22.2,0-40.3-9.1-40.3-20.4C0.5,9.6,18.5,0.5,40.8,0.5S81,9.6,81,20.8
									C81,32.1,63,41.2,40.8,41.2 M45.3,22.9c-0.8,0-1.7,0.1-2.7,0.3c-3.5,0.7-6.9,2-9.6,3l-0.1,0c-8.2,3.1-12.2,6.2-13.2,7.1
									l-0.2,0.2c-0.1,0.1-0.1,0.1-0.2,0.2c-0.2,0.2-0.5,0.5-0.5,1c0,0.8,1,1.1,1.6,1.3l0.1,0c6,1.8,13,2.7,20.1,2.7
									c0.1,0,0.2,0,0.2,0c0.1,0,0.1,0,0.2,0c1,0,2.1-0.2,2.9-0.7c2.6-1.3,3.8-4.2,4.5-6l0.2-0.5c1.4-3.1,1.6-5.5,0.6-7
									C48.7,23.5,47.3,22.9,45.3,22.9 M69.8,9.6l-0.1,0c-0.4,0-0.8,0.3-1,0.7c-0.1,0.2-0.3,0.5-0.3,0.6
									c-2.5,5.9-7.7,16.8-14.2,24.5c-0.2,0.2-0.3,0.4-0.4,0.5c-0.3,0.5-0.2,0.9,0.1,1.1c0.2,0.2,0.5,0.3,0.9,0.3
									c0.3,0,0.6,0,1.1-0.1c13.8-2.8,22.8-9.3,22.8-16.4c0-4-2.7-7.8-7.8-10.9C70.3,9.7,70,9.6,69.8,9.6 M26.9,4.2
									c-0.3,0-0.7,0-1.1,0.1C11.9,7.2,3,13.7,3,20.8c0,4,2.7,7.7,7.9,10.9c0.4,0.2,0.7,0.3,1.1,0.3c0.6,0,0.9-0.4,1-0.7
									c0.1-0.2,0.2-0.4,0.3-0.6l0.1-0.1c4.5-10.4,9.4-18.8,14.2-24.5c0.2-0.2,0.3-0.4,0.4-0.5c0.3-0.5,0.2-0.9-0.1-1.1
									C27.7,4.4,27.4,4.2,26.9,4.2 M40.4,2.9c-1.1,0-2.1,0.3-2.9,0.7c-2.6,1.3-3.8,4.2-4.5,6L32.8,10c-1.4,3.2-1.6,5.5-0.6,7
									c0.7,1.1,2.1,1.7,4.1,1.7c0.8,0,1.7-0.1,2.7-0.3c3.4-0.7,6.6-1.9,9.6-3.1c8.1-3.1,12.2-6.2,13.2-7.1C62,8.1,62.1,8,62.2,7.9
									c0.2-0.2,0.5-0.5,0.5-0.9c0-0.8-1-1.1-1.5-1.2L61,5.7c-6-1.8-13-2.8-20.2-2.8H40.4L40.4,2.9"/>
							</defs>
							<use xlink:href="#SVGID_12_"  style="overflow:visible;fill:#FFFFFF;"/>
							<clipPath id="SVGID_13_">
								<use xlink:href="#SVGID_12_"  style="overflow:visible;"/>
							</clipPath>
							<path class="st5" d="M40.8,41.6c22.5,0,40.7-9.3,40.7-20.8C81.4,9.3,63.2,0,40.7,0C18.3,0,0,9.3,0,20.8
								C0.1,32.3,18.3,41.6,40.8,41.6 M48.4,31.5c-0.7,1.6-1.8,4.9-4.5,6.2c-0.8,0.4-1.8,0.6-2.7,0.6c-0.2,0-0.3,0-0.4,0
								c-7.4,0-14.2-1-20-2.7c-0.4-0.1-1.4-0.4-1.4-0.9c0-0.3,0.1-0.5,0.3-0.7c0.1-0.1,0.2-0.2,0.4-0.3c1.4-1.1,5.4-4.1,13.1-7
								c2.7-1,6-2.3,9.6-3C44.8,23.2,52.5,22,48.4,31.5 M69,10.5c0.1-0.3,0.3-0.5,0.7-0.5c0.2,0,0.4,0,0.8,0.3
								c4.8,2.9,7.6,6.6,7.6,10.6c0,7.2-9.2,13.3-22.5,16c-0.8,0.2-1.4,0.2-1.6,0c-0.1-0.1-0.2-0.4,0-0.7c0.1-0.2,0.2-0.3,0.3-0.5
								c7.2-8.5,12.7-21,14.2-24.6C68.8,10.9,68.9,10.6,69,10.5 M33.2,10.2c0.7-1.6,1.8-4.9,4.5-6.3c0.8-0.4,1.8-0.6,2.7-0.6
								c0.2,0,0.3,0,0.4,0c7.4,0,14.3,1,20,2.7c0.4,0.1,1.3,0.3,1.3,0.9c0,0.3-0.1,0.5-0.3,0.7c-0.1,0.1-0.2,0.2-0.4,0.3
								c-1.3,1.1-5.4,4.1-13.1,7c-2.7,1.1-6.1,2.3-9.6,3.1C36.8,18.4,29.2,19.6,33.2,10.2 M25.9,4.8c0.9-0.2,1.5-0.2,1.7,0.1
								c0.1,0.1,0.2,0.4,0,0.6c-0.1,0.2-0.2,0.3-0.4,0.5C20,14.4,14.5,26.9,13,30.5c-0.1,0.3-0.2,0.5-0.3,0.7
								c-0.2,0.3-0.3,0.5-0.7,0.5c-0.2,0-0.4,0-0.8-0.3c-4.8-2.9-7.7-6.6-7.7-10.6C3.4,13.7,12.6,7.5,25.9,4.8"/>
						</g>
					</g>
				</g>
			</g>
		</g>
		<g>
			<defs>
				<path id="SVGID_14_" d="M40.8,41.7c22.5,0,40.8-9.3,40.8-20.8C81.5,9.3,63.3,0,40.8,0C18.2,0,0,9.3,0,20.8
					C0,32.3,18.2,41.7,40.8,41.7 M48.4,31.5c-0.7,1.6-1.8,4.9-4.5,6.3c-0.8,0.4-1.8,0.6-2.7,0.6c-0.2,0-0.3,0-0.4,0
					c-7.4,0-14.3-1-20-2.7c-0.4-0.1-1.4-0.4-1.4-0.9c0-0.3,0.1-0.5,0.3-0.7c0.1-0.1,0.2-0.2,0.4-0.3c1.3-1.1,5.4-4.1,13.1-7
					c2.7-1,6-2.3,9.6-3C44.8,23.2,52.5,22.1,48.4,31.5 M69,10.5c0.1-0.3,0.3-0.5,0.7-0.5c0.2,0,0.4,0,0.8,0.3
					c4.8,2.9,7.6,6.6,7.6,10.6c0,7.2-9.2,13.4-22.5,16.1c-0.9,0.2-1.4,0.2-1.6-0.1c-0.1-0.1-0.2-0.4,0-0.6c0.1-0.2,0.2-0.3,0.3-0.5
					c7.2-8.5,12.7-21,14.3-24.6C68.8,10.9,68.9,10.6,69,10.5 M33.2,10.2c0.7-1.6,1.8-4.9,4.5-6.3c0.8-0.4,1.8-0.6,2.7-0.6
					c0.2,0,0.3,0,0.4,0c7.4,0,14.3,1,20.1,2.8c0.4,0.1,1.3,0.3,1.3,0.9c0,0.3-0.2,0.5-0.3,0.7c-0.1,0.1-0.2,0.2-0.4,0.3
					c-1.3,1.1-5.4,4.1-13.1,7c-2.7,1.1-6.1,2.3-9.6,3.1C36.8,18.4,29.2,19.6,33.2,10.2 M25.8,4.8c0.9-0.2,1.5-0.2,1.7,0.1
					c0.1,0.1,0.2,0.4,0,0.6c-0.1,0.2-0.2,0.3-0.4,0.5C20,14.4,14.5,27,12.9,30.6c-0.1,0.2-0.2,0.5-0.3,0.7c-0.2,0.3-0.4,0.5-0.7,0.5
					c-0.2,0-0.4,0-0.8-0.3c-4.8-2.9-7.7-6.6-7.7-10.6C3.3,13.6,12.6,7.5,25.8,4.8"/>
			</defs>
			<use xlink:href="#SVGID_14_"  style="overflow:visible;fill:#FFFFFF;"/>
			<clipPath id="SVGID_15_">
				<use xlink:href="#SVGID_14_"  style="overflow:visible;"/>
			</clipPath>
			<g class="st6">
				<g>
					<defs>
						<polyline id="SVGID_16_" points="38.1,21.3 61.7,21.3 61.7,41 38.1,41 38.1,21.3 						"/>
					</defs>
					<use xlink:href="#SVGID_16_"  style="overflow:visible;fill:#FFFFFF;"/>
					<clipPath id="SVGID_17_">
						<use xlink:href="#SVGID_16_"  style="overflow:visible;"/>
					</clipPath>
					<g class="st7">
						<g>
							<defs>
								<path id="SVGID_18_" d="M59.4,22.1L54,24c0,0,0,0.1,0,0.1l0,0c0,0.3,0,0.5,0,0.8c-0.2,1.8-0.9,3.8-1.4,5
									c-0.6,1.6-1.3,3.1-2.2,4.6c0,0,0,0.1-0.1,0.1l0,0c-0.9,1.6-1.9,3.2-3,4.7c-0.1,0.1-0.2,0.2-0.4,0.3l0,0
									c-0.4,0.2-1,0.3-1.8,0.4c-1.4,0.1-2.9,0.1-4.3,0.1c0,0,0,0-0.1,0l0,0c-0.7,0-1.4,0-2.2,0l-0.1,0.1c0.8,0,1.5,0,2.3,0
									c6.3,0,12.3-0.7,17.8-2.1l0.1-0.2c-3,0.8-6.2,1.3-9.6,1.7c-0.2,0-0.3,0-0.5,0l0,0c0,0,0,0,0,0c-0.2,0-0.2,0-0.3-0.1l0,0
									c0,0,0-0.1,0-0.1c0-0.1,0-0.1,0.1-0.2l0,0c0.3-0.5,0.7-1,1-1.5c0.8-1.2,1.7-2.4,2.5-3.6l0,0c0.2-0.3,0.5-0.7,0.7-1
									C55,29.6,57.3,25.9,59.4,22.1"/>
							</defs>
							<use xlink:href="#SVGID_18_"  style="overflow:visible;fill:#FFFFFF;"/>
							<clipPath id="SVGID_19_">
								<use xlink:href="#SVGID_18_"  style="overflow:visible;"/>
							</clipPath>
							<rect x="38.5" y="22.1" class="st8" width="21" height="18.2"/>
						</g>
					</g>
				</g>
			</g>
		</g>
		<g>
			<defs>
				<path id="SVGID_20_" d="M40.8,41.7c22.5,0,40.8-9.3,40.8-20.8C81.5,9.3,63.3,0,40.8,0C18.2,0,0,9.3,0,20.8
					C0,32.3,18.2,41.7,40.8,41.7 M48.4,31.5c-0.7,1.6-1.8,4.9-4.5,6.3c-0.8,0.4-1.8,0.6-2.7,0.6c-0.2,0-0.3,0-0.4,0
					c-7.4,0-14.3-1-20-2.7c-0.4-0.1-1.4-0.4-1.4-0.9c0-0.3,0.1-0.5,0.3-0.7c0.1-0.1,0.2-0.2,0.4-0.3c1.3-1.1,5.4-4.1,13.1-7
					c2.7-1,6-2.3,9.6-3C44.8,23.2,52.5,22.1,48.4,31.5 M69,10.5c0.1-0.3,0.3-0.5,0.7-0.5c0.2,0,0.4,0,0.8,0.3
					c4.8,2.9,7.6,6.6,7.6,10.6c0,7.2-9.2,13.4-22.5,16.1c-0.9,0.2-1.4,0.2-1.6-0.1c-0.1-0.1-0.2-0.4,0-0.6c0.1-0.2,0.2-0.3,0.3-0.5
					c7.2-8.5,12.7-21,14.3-24.6C68.8,10.9,68.9,10.6,69,10.5 M33.2,10.2c0.7-1.6,1.8-4.9,4.5-6.3c0.8-0.4,1.8-0.6,2.7-0.6
					c0.2,0,0.3,0,0.4,0c7.4,0,14.3,1,20.1,2.8c0.4,0.1,1.3,0.3,1.3,0.9c0,0.3-0.2,0.5-0.3,0.7c-0.1,0.1-0.2,0.2-0.4,0.3
					c-1.3,1.1-5.4,4.1-13.1,7c-2.7,1.1-6.1,2.3-9.6,3.1C36.8,18.4,29.2,19.6,33.2,10.2 M25.8,4.8c0.9-0.2,1.5-0.2,1.7,0.1
					c0.1,0.1,0.2,0.4,0,0.6c-0.1,0.2-0.2,0.3-0.4,0.5C20,14.4,14.5,27,12.9,30.6c-0.1,0.2-0.2,0.5-0.3,0.7c-0.2,0.3-0.4,0.5-0.7,0.5
					c-0.2,0-0.4,0-0.8-0.3c-4.8-2.9-7.7-6.6-7.7-10.6C3.3,13.6,12.6,7.5,25.8,4.8"/>
			</defs>
			<use xlink:href="#SVGID_20_"  style="overflow:visible;fill:#FFFFFF;"/>
			<clipPath id="SVGID_21_">
				<use xlink:href="#SVGID_20_"  style="overflow:visible;"/>
			</clipPath>
			<path class="st9" d="M39.6,17.8c-0.2,0.1-0.5,0.1-0.7,0.2c-1.1,0.2-3.8,0.7-5.5-0.4c-1.4-0.9-2.1-3-0.2-7.4
				c0.6-1.5,1.7-4.5,4.1-6L34.7,2c-0.2,0.1-0.3,0.2-0.4,0.3c-1.1,1.5-2.1,3-3,4.7c-0.8,1.5-1.6,3.1-2.2,4.7c-0.5,1.3-1.2,3.2-1.4,5
				c-0.2,2.1,0.3,4,2.5,4.6c0.1,0,0.3,0.1,0.5,0.1c1.3,0.3,3.8,0.6,9.4-1L39.6,17.8"/>
		</g>
		<g>
			<defs>
				<path id="SVGID_22_" d="M40.8,41.7c22.5,0,40.8-9.3,40.8-20.8C81.5,9.3,63.3,0,40.8,0C18.2,0,0,9.3,0,20.8
					C0,32.3,18.2,41.7,40.8,41.7 M48.4,31.5c-0.7,1.6-1.8,4.9-4.5,6.3c-0.8,0.4-1.8,0.6-2.7,0.6c-0.2,0-0.3,0-0.4,0
					c-7.4,0-14.3-1-20-2.7c-0.4-0.1-1.4-0.4-1.4-0.9c0-0.3,0.1-0.5,0.3-0.7c0.1-0.1,0.2-0.2,0.4-0.3c1.3-1.1,5.4-4.1,13.1-7
					c2.7-1,6-2.3,9.6-3C44.8,23.2,52.5,22.1,48.4,31.5 M69,10.5c0.1-0.3,0.3-0.5,0.7-0.5c0.2,0,0.4,0,0.8,0.3
					c4.8,2.9,7.6,6.6,7.6,10.6c0,7.2-9.2,13.4-22.5,16.1c-0.9,0.2-1.4,0.2-1.6-0.1c-0.1-0.1-0.2-0.4,0-0.6c0.1-0.2,0.2-0.3,0.3-0.5
					c7.2-8.5,12.7-21,14.3-24.6C68.8,10.9,68.9,10.6,69,10.5 M33.2,10.2c0.7-1.6,1.8-4.9,4.5-6.3c0.8-0.4,1.8-0.6,2.7-0.6
					c0.2,0,0.3,0,0.4,0c7.4,0,14.3,1,20.1,2.8c0.4,0.1,1.3,0.3,1.3,0.9c0,0.3-0.2,0.5-0.3,0.7c-0.1,0.1-0.2,0.2-0.4,0.3
					c-1.3,1.1-5.4,4.1-13.1,7c-2.7,1.1-6.1,2.3-9.6,3.1C36.8,18.4,29.2,19.6,33.2,10.2 M25.8,4.8c0.9-0.2,1.5-0.2,1.7,0.1
					c0.1,0.1,0.2,0.4,0,0.6c-0.1,0.2-0.2,0.3-0.4,0.5C20,14.4,14.5,27,12.9,30.6c-0.1,0.2-0.2,0.5-0.3,0.7c-0.2,0.3-0.4,0.5-0.7,0.5
					c-0.2,0-0.4,0-0.8-0.3c-4.8-2.9-7.7-6.6-7.7-10.6C3.3,13.6,12.6,7.5,25.8,4.8"/>
			</defs>
			<use xlink:href="#SVGID_22_"  style="overflow:visible;fill:#FFFFFF;"/>
			<clipPath id="SVGID_23_">
				<use xlink:href="#SVGID_22_"  style="overflow:visible;"/>
			</clipPath>
			<path class="st10" d="M66.3,6.5l-4,0.4l0,0c0,0.3-0.2,0.5-0.3,0.7c-0.1,0.1-0.2,0.2-0.4,0.3c-1.3,1.1-5.4,4.1-13.1,7
				c-1.8,0.7-4,1.5-6.4,2.2c-0.8,0.2-1.7,0.5-2.5,0.7c-0.2,0.1-0.5,0.1-0.7,0.2c-1,0.2-3.5,0.6-5.2-0.2l-3.5,3.7
				c0.1,0,0.3,0.1,0.5,0.1c1.3,0.3,3.8,0.6,9.4-1c2.6-0.7,5.8-1.8,9.8-3.3c6.9-2.7,15-7.3,16.4-10.6C66.3,6.6,66.3,6.6,66.3,6.5"/>
		</g>
		<g>
			<defs>
				<path id="SVGID_24_" d="M40.8,41.7c22.5,0,40.8-9.3,40.8-20.8C81.5,9.3,63.3,0,40.8,0C18.2,0,0,9.3,0,20.8
					C0,32.3,18.2,41.7,40.8,41.7 M48.4,31.5c-0.7,1.6-1.8,4.9-4.5,6.3c-0.8,0.4-1.8,0.6-2.7,0.6c-0.2,0-0.3,0-0.4,0
					c-7.4,0-14.3-1-20-2.7c-0.4-0.1-1.4-0.4-1.4-0.9c0-0.3,0.1-0.5,0.3-0.7c0.1-0.1,0.2-0.2,0.4-0.3c1.3-1.1,5.4-4.1,13.1-7
					c2.7-1,6-2.3,9.6-3C44.8,23.2,52.5,22.1,48.4,31.5 M69,10.5c0.1-0.3,0.3-0.5,0.7-0.5c0.2,0,0.4,0,0.8,0.3
					c4.8,2.9,7.6,6.6,7.6,10.6c0,7.2-9.2,13.4-22.5,16.1c-0.9,0.2-1.4,0.2-1.6-0.1c-0.1-0.1-0.2-0.4,0-0.6c0.1-0.2,0.2-0.3,0.3-0.5
					c7.2-8.5,12.7-21,14.3-24.6C68.8,10.9,68.9,10.6,69,10.5 M33.2,10.2c0.7-1.6,1.8-4.9,4.5-6.3c0.8-0.4,1.8-0.6,2.7-0.6
					c0.2,0,0.3,0,0.4,0c7.4,0,14.3,1,20.1,2.8c0.4,0.1,1.3,0.3,1.3,0.9c0,0.3-0.2,0.5-0.3,0.7c-0.1,0.1-0.2,0.2-0.4,0.3
					c-1.3,1.1-5.4,4.1-13.1,7c-2.7,1.1-6.1,2.3-9.6,3.1C36.8,18.4,29.2,19.6,33.2,10.2 M25.8,4.8c0.9-0.2,1.5-0.2,1.7,0.1
					c0.1,0.1,0.2,0.4,0,0.6c-0.1,0.2-0.2,0.3-0.4,0.5C20,14.4,14.5,27,12.9,30.6c-0.1,0.2-0.2,0.5-0.3,0.7c-0.2,0.3-0.4,0.5-0.7,0.5
					c-0.2,0-0.4,0-0.8-0.3c-4.8-2.9-7.7-6.6-7.7-10.6C3.3,13.6,12.6,7.5,25.8,4.8"/>
			</defs>
			<use xlink:href="#SVGID_24_"  style="overflow:visible;fill:#FFFFFF;"/>
			<clipPath id="SVGID_25_">
				<use xlink:href="#SVGID_24_"  style="overflow:visible;"/>
			</clipPath>
			<path class="st11" d="M11.9,31.7c-0.2,0-0.4,0-0.8-0.3c-4.8-2.9-7.7-6.6-7.7-10.6c0-7.2,9.3-13.4,22.5-16.1
				c0.9-0.2,1.5-0.2,1.7,0.1l0.1,0.1L33.4,2c0-0.1-0.2-0.1-0.4-0.1c-7.7,0.8-14.7,2.7-20.4,5.5C5.4,11.1,1.5,15.8,1.5,20.8
				c0,5,4,9.8,11.2,13.4c0.3,0.2,0.6,0.3,1,0.5c0.2,0.1,0.4,0.1,0.6,0l-2-3.1C12.1,31.7,12,31.7,11.9,31.7"/>
		</g>
		<g>
			<defs>
				<path id="SVGID_26_" d="M40.8,41.7c22.5,0,40.8-9.3,40.8-20.8C81.5,9.3,63.3,0,40.8,0C18.2,0,0,9.3,0,20.8
					C0,32.3,18.2,41.7,40.8,41.7 M48.4,31.5c-0.7,1.6-1.8,4.9-4.5,6.3c-0.8,0.4-1.8,0.6-2.7,0.6c-0.2,0-0.3,0-0.4,0
					c-7.4,0-14.3-1-20-2.7c-0.4-0.1-1.4-0.4-1.4-0.9c0-0.3,0.1-0.5,0.3-0.7c0.1-0.1,0.2-0.2,0.4-0.3c1.3-1.1,5.4-4.1,13.1-7
					c2.7-1,6-2.3,9.6-3C44.8,23.2,52.5,22.1,48.4,31.5 M69,10.5c0.1-0.3,0.3-0.5,0.7-0.5c0.2,0,0.4,0,0.8,0.3
					c4.8,2.9,7.6,6.6,7.6,10.6c0,7.2-9.2,13.4-22.5,16.1c-0.9,0.2-1.4,0.2-1.6-0.1c-0.1-0.1-0.2-0.4,0-0.6c0.1-0.2,0.2-0.3,0.3-0.5
					c7.2-8.5,12.7-21,14.3-24.6C68.8,10.9,68.9,10.6,69,10.5 M33.2,10.2c0.7-1.6,1.8-4.9,4.5-6.3c0.8-0.4,1.8-0.6,2.7-0.6
					c0.2,0,0.3,0,0.4,0c7.4,0,14.3,1,20.1,2.8c0.4,0.1,1.3,0.3,1.3,0.9c0,0.3-0.2,0.5-0.3,0.7c-0.1,0.1-0.2,0.2-0.4,0.3
					c-1.3,1.1-5.4,4.1-13.1,7c-2.7,1.1-6.1,2.3-9.6,3.1C36.8,18.4,29.2,19.6,33.2,10.2 M25.8,4.8c0.9-0.2,1.5-0.2,1.7,0.1
					c0.1,0.1,0.2,0.4,0,0.6c-0.1,0.2-0.2,0.3-0.4,0.5C20,14.4,14.5,27,12.9,30.6c-0.1,0.2-0.2,0.5-0.3,0.7c-0.2,0.3-0.4,0.5-0.7,0.5
					c-0.2,0-0.4,0-0.8-0.3c-4.8-2.9-7.7-6.6-7.7-10.6C3.3,13.6,12.6,7.5,25.8,4.8"/>
			</defs>
			<use xlink:href="#SVGID_26_"  style="overflow:visible;fill:#FFFFFF;"/>
			<clipPath id="SVGID_27_">
				<use xlink:href="#SVGID_26_"  style="overflow:visible;"/>
			</clipPath>
			<path class="st12" d="M51.4,20.3c-1.6-0.5-5.5-1.5-19.8,4.1c-6.9,2.7-15,7.3-16.4,10.6c-0.1,0.1-0.1,0.2,0,0.3l4.1-0.5l0-0.1
				c0-0.3,0.1-0.5,0.3-0.7c0.1-0.1,0.2-0.2,0.4-0.3c1.3-1.1,5.4-4.1,13.1-7c2.7-1,6-2.3,9.6-3c2.1-0.4,9.8-1.6,5.7,7.8
				c-0.6,1.5-1.8,4.8-4.4,6.2l2.9,2c0.2-0.1,0.3-0.2,0.4-0.3c1.1-1.5,2.1-3.1,3-4.7c0.8-1.5,1.6-3.1,2.2-4.7c0.5-1.3,1.2-3.2,1.4-5
				C54.1,22.9,53.6,20.9,51.4,20.3"/>
		</g>
		<g>
			<defs>
				<path id="SVGID_28_" d="M40.8,41.7c22.5,0,40.8-9.3,40.8-20.8C81.5,9.3,63.3,0,40.8,0C18.2,0,0,9.3,0,20.8
					C0,32.3,18.2,41.7,40.8,41.7 M48.4,31.5c-0.7,1.6-1.8,4.9-4.5,6.3c-0.8,0.4-1.8,0.6-2.7,0.6c-0.2,0-0.3,0-0.4,0
					c-7.4,0-14.3-1-20-2.7c-0.4-0.1-1.4-0.4-1.4-0.9c0-0.3,0.1-0.5,0.3-0.7c0.1-0.1,0.2-0.2,0.4-0.3c1.3-1.1,5.4-4.1,13.1-7
					c2.7-1,6-2.3,9.6-3C44.8,23.2,52.5,22.1,48.4,31.5 M69,10.5c0.1-0.3,0.3-0.5,0.7-0.5c0.2,0,0.4,0,0.8,0.3
					c4.8,2.9,7.6,6.6,7.6,10.6c0,7.2-9.2,13.4-22.5,16.1c-0.9,0.2-1.4,0.2-1.6-0.1c-0.1-0.1-0.2-0.4,0-0.6c0.1-0.2,0.2-0.3,0.3-0.5
					c7.2-8.5,12.7-21,14.3-24.6C68.8,10.9,68.9,10.6,69,10.5 M33.2,10.2c0.7-1.6,1.8-4.9,4.5-6.3c0.8-0.4,1.8-0.6,2.7-0.6
					c0.2,0,0.3,0,0.4,0c7.4,0,14.3,1,20.1,2.8c0.4,0.1,1.3,0.3,1.3,0.9c0,0.3-0.2,0.5-0.3,0.7c-0.1,0.1-0.2,0.2-0.4,0.3
					c-1.3,1.1-5.4,4.1-13.1,7c-2.7,1.1-6.1,2.3-9.6,3.1C36.8,18.4,29.2,19.6,33.2,10.2 M25.8,4.8c0.9-0.2,1.5-0.2,1.7,0.1
					c0.1,0.1,0.2,0.4,0,0.6c-0.1,0.2-0.2,0.3-0.4,0.5C20,14.4,14.5,27,12.9,30.6c-0.1,0.2-0.2,0.5-0.3,0.7c-0.2,0.3-0.4,0.5-0.7,0.5
					c-0.2,0-0.4,0-0.8-0.3c-4.8-2.9-7.7-6.6-7.7-10.6C3.3,13.6,12.6,7.5,25.8,4.8"/>
			</defs>
			<use xlink:href="#SVGID_28_"  style="overflow:visible;fill:#FFFFFF;"/>
			<clipPath id="SVGID_29_">
				<use xlink:href="#SVGID_28_"  style="overflow:visible;"/>
			</clipPath>
			<path class="st13" d="M43.9,37.7c-0.8,0.4-1.8,0.6-2.7,0.6c-0.2,0-0.3,0-0.4,0c-7.5,0-14.5-1-20.4-2.8l-0.2-0.1
				c-0.5-0.2-0.8-0.4-0.9-0.7l-4.1,0.5c0.1,0.2,0.3,0.3,0.6,0.4c7,2.9,15.7,4.5,24.9,4.5c1.5,0,2.9,0,4.3-0.1c0.8,0,1.4-0.2,1.8-0.4
				l-2.9-2L43.9,37.7"/>
		</g>
		<g>
			<defs>
				<path id="SVGID_30_" d="M40.8,41.7c22.5,0,40.8-9.3,40.8-20.8C81.5,9.3,63.3,0,40.8,0C18.2,0,0,9.3,0,20.8
					C0,32.3,18.2,41.7,40.8,41.7 M48.4,31.5c-0.7,1.6-1.8,4.9-4.5,6.3c-0.8,0.4-1.8,0.6-2.7,0.6c-0.2,0-0.3,0-0.4,0
					c-7.4,0-14.3-1-20-2.7c-0.4-0.1-1.4-0.4-1.4-0.9c0-0.3,0.1-0.5,0.3-0.7c0.1-0.1,0.2-0.2,0.4-0.3c1.3-1.1,5.4-4.1,13.1-7
					c2.7-1,6-2.3,9.6-3C44.8,23.2,52.5,22.1,48.4,31.5 M69,10.5c0.1-0.3,0.3-0.5,0.7-0.5c0.2,0,0.4,0,0.8,0.3
					c4.8,2.9,7.6,6.6,7.6,10.6c0,7.2-9.2,13.4-22.5,16.1c-0.9,0.2-1.4,0.2-1.6-0.1c-0.1-0.1-0.2-0.4,0-0.6c0.1-0.2,0.2-0.3,0.3-0.5
					c7.2-8.5,12.7-21,14.3-24.6C68.8,10.9,68.9,10.6,69,10.5 M33.2,10.2c0.7-1.6,1.8-4.9,4.5-6.3c0.8-0.4,1.8-0.6,2.7-0.6
					c0.2,0,0.3,0,0.4,0c7.4,0,14.3,1,20.1,2.8c0.4,0.1,1.3,0.3,1.3,0.9c0,0.3-0.2,0.5-0.3,0.7c-0.1,0.1-0.2,0.2-0.4,0.3
					c-1.3,1.1-5.4,4.1-13.1,7c-2.7,1.1-6.1,2.3-9.6,3.1C36.8,18.4,29.2,19.6,33.2,10.2 M25.8,4.8c0.9-0.2,1.5-0.2,1.7,0.1
					c0.1,0.1,0.2,0.4,0,0.6c-0.1,0.2-0.2,0.3-0.4,0.5C20,14.4,14.5,27,12.9,30.6c-0.1,0.2-0.2,0.5-0.3,0.7c-0.2,0.3-0.4,0.5-0.7,0.5
					c-0.2,0-0.4,0-0.8-0.3c-4.8-2.9-7.7-6.6-7.7-10.6C3.3,13.6,12.6,7.5,25.8,4.8"/>
			</defs>
			<use xlink:href="#SVGID_30_"  style="overflow:visible;fill:#FFFFFF;"/>
			<clipPath id="SVGID_31_">
				<use xlink:href="#SVGID_30_"  style="overflow:visible;"/>
			</clipPath>
			<path class="st14" d="M54.1,36.2c0.1-0.2,0.2-0.3,0.3-0.5c7.2-8.5,12.7-21,14.2-24.6c0.1-0.2,0.2-0.5,0.3-0.6
				c0.1-0.2,0.2-0.4,0.5-0.4l-2.1-3.1c-0.1,0.1-0.2,0.1-0.3,0.2c-4.3,9.3-8.9,17.7-14.6,26.1c-1.4,2-2.9,4-4.2,6.1
				c-0.1,0.2-0.1,0.3,0,0.4l5.8-2.9C54,36.7,53.9,36.4,54.1,36.2"/>
		</g>
		<g>
			<defs>
				<path id="SVGID_32_" d="M40.8,41.7c22.5,0,40.8-9.3,40.8-20.8C81.5,9.3,63.3,0,40.8,0C18.2,0,0,9.3,0,20.8
					C0,32.3,18.2,41.7,40.8,41.7 M48.4,31.5c-0.7,1.6-1.8,4.9-4.5,6.3c-0.8,0.4-1.8,0.6-2.7,0.6c-0.2,0-0.3,0-0.4,0
					c-7.4,0-14.3-1-20-2.7c-0.4-0.1-1.4-0.4-1.4-0.9c0-0.3,0.1-0.5,0.3-0.7c0.1-0.1,0.2-0.2,0.4-0.3c1.3-1.1,5.4-4.1,13.1-7
					c2.7-1,6-2.3,9.6-3C44.8,23.2,52.5,22.1,48.4,31.5 M69,10.5c0.1-0.3,0.3-0.5,0.7-0.5c0.2,0,0.4,0,0.8,0.3
					c4.8,2.9,7.6,6.6,7.6,10.6c0,7.2-9.2,13.4-22.5,16.1c-0.9,0.2-1.4,0.2-1.6-0.1c-0.1-0.1-0.2-0.4,0-0.6c0.1-0.2,0.2-0.3,0.3-0.5
					c7.2-8.5,12.7-21,14.3-24.6C68.8,10.9,68.9,10.6,69,10.5 M33.2,10.2c0.7-1.6,1.8-4.9,4.5-6.3c0.8-0.4,1.8-0.6,2.7-0.6
					c0.2,0,0.3,0,0.4,0c7.4,0,14.3,1,20.1,2.8c0.4,0.1,1.3,0.3,1.3,0.9c0,0.3-0.2,0.5-0.3,0.7c-0.1,0.1-0.2,0.2-0.4,0.3
					c-1.3,1.1-5.4,4.1-13.1,7c-2.7,1.1-6.1,2.3-9.6,3.1C36.8,18.4,29.2,19.6,33.2,10.2 M25.8,4.8c0.9-0.2,1.5-0.2,1.7,0.1
					c0.1,0.1,0.2,0.4,0,0.6c-0.1,0.2-0.2,0.3-0.4,0.5C20,14.4,14.5,27,12.9,30.6c-0.1,0.2-0.2,0.5-0.3,0.7c-0.2,0.3-0.4,0.5-0.7,0.5
					c-0.2,0-0.4,0-0.8-0.3c-4.8-2.9-7.7-6.6-7.7-10.6C3.3,13.6,12.6,7.5,25.8,4.8"/>
			</defs>
			<use xlink:href="#SVGID_32_"  style="overflow:visible;fill:#FFFFFF;"/>
			<clipPath id="SVGID_33_">
				<use xlink:href="#SVGID_32_"  style="overflow:visible;"/>
			</clipPath>
			<path class="st15" d="M37.7,3.9c0.8-0.4,1.8-0.6,2.7-0.6c0.2,0,0.3,0,0.4,0c7.5,0,14.5,1,20.4,2.8l0.2,0.1
				c0.5,0.2,0.8,0.4,0.8,0.7l4-0.4c0-0.2-0.3-0.4-0.6-0.5c-7-2.9-15.8-4.4-25-4.4c-1.5,0-2.9,0-4.3,0.1c-0.8,0-1.4,0.2-1.8,0.4
				l2.6,2.2C37.4,4.1,37.6,4,37.7,3.9"/>
		</g>
		<g>
			<defs>
				<path id="SVGID_34_" d="M40.8,41.7c22.5,0,40.8-9.3,40.8-20.8C81.5,9.3,63.3,0,40.8,0C18.2,0,0,9.3,0,20.8
					C0,32.3,18.2,41.7,40.8,41.7 M48.4,31.5c-0.7,1.6-1.8,4.9-4.5,6.3c-0.8,0.4-1.8,0.6-2.7,0.6c-0.2,0-0.3,0-0.4,0
					c-7.4,0-14.3-1-20-2.7c-0.4-0.1-1.4-0.4-1.4-0.9c0-0.3,0.1-0.5,0.3-0.7c0.1-0.1,0.2-0.2,0.4-0.3c1.3-1.1,5.4-4.1,13.1-7
					c2.7-1,6-2.3,9.6-3C44.8,23.2,52.5,22.1,48.4,31.5 M69,10.5c0.1-0.3,0.3-0.5,0.7-0.5c0.2,0,0.4,0,0.8,0.3
					c4.8,2.9,7.6,6.6,7.6,10.6c0,7.2-9.2,13.4-22.5,16.1c-0.9,0.2-1.4,0.2-1.6-0.1c-0.1-0.1-0.2-0.4,0-0.6c0.1-0.2,0.2-0.3,0.3-0.5
					c7.2-8.5,12.7-21,14.3-24.6C68.8,10.9,68.9,10.6,69,10.5 M33.2,10.2c0.7-1.6,1.8-4.9,4.5-6.3c0.8-0.4,1.8-0.6,2.7-0.6
					c0.2,0,0.3,0,0.4,0c7.4,0,14.3,1,20.1,2.8c0.4,0.1,1.3,0.3,1.3,0.9c0,0.3-0.2,0.5-0.3,0.7c-0.1,0.1-0.2,0.2-0.4,0.3
					c-1.3,1.1-5.4,4.1-13.1,7c-2.7,1.1-6.1,2.3-9.6,3.1C36.8,18.4,29.2,19.6,33.2,10.2 M25.8,4.8c0.9-0.2,1.5-0.2,1.7,0.1
					c0.1,0.1,0.2,0.4,0,0.6c-0.1,0.2-0.2,0.3-0.4,0.5C20,14.4,14.5,27,12.9,30.6c-0.1,0.2-0.2,0.5-0.3,0.7c-0.2,0.3-0.4,0.5-0.7,0.5
					c-0.2,0-0.4,0-0.8-0.3c-4.8-2.9-7.7-6.6-7.7-10.6C3.3,13.6,12.6,7.5,25.8,4.8"/>
			</defs>
			<use xlink:href="#SVGID_34_"  style="overflow:visible;fill:#FFFFFF;"/>
			<clipPath id="SVGID_35_">
				<use xlink:href="#SVGID_34_"  style="overflow:visible;"/>
			</clipPath>
			<path class="st16" d="M80.1,20.8c0-5-4-9.8-11.2-13.4c-0.3-0.2-0.6-0.3-1-0.5c-0.2-0.1-0.4-0.1-0.6,0l2.1,3.1c0.1,0,0.1,0,0.2,0
				c0.2,0,0.4,0,0.8,0.3c4.8,2.9,7.6,6.6,7.6,10.6c0,0.1,0,0.3,0,0.4h1.9C80.1,21.1,80.1,21,80.1,20.8"/>
		</g>
		<g>
			<defs>
				<path id="SVGID_36_" d="M40.8,41.7c22.5,0,40.8-9.3,40.8-20.8C81.5,9.3,63.3,0,40.8,0C18.2,0,0,9.3,0,20.8
					C0,32.3,18.2,41.7,40.8,41.7 M48.4,31.5c-0.7,1.6-1.8,4.9-4.5,6.3c-0.8,0.4-1.8,0.6-2.7,0.6c-0.2,0-0.3,0-0.4,0
					c-7.4,0-14.3-1-20-2.7c-0.4-0.1-1.4-0.4-1.4-0.9c0-0.3,0.1-0.5,0.3-0.7c0.1-0.1,0.2-0.2,0.4-0.3c1.3-1.1,5.4-4.1,13.1-7
					c2.7-1,6-2.3,9.6-3C44.8,23.2,52.5,22.1,48.4,31.5 M69,10.5c0.1-0.3,0.3-0.5,0.7-0.5c0.2,0,0.4,0,0.8,0.3
					c4.8,2.9,7.6,6.6,7.6,10.6c0,7.2-9.2,13.4-22.5,16.1c-0.9,0.2-1.4,0.2-1.6-0.1c-0.1-0.1-0.2-0.4,0-0.6c0.1-0.2,0.2-0.3,0.3-0.5
					c7.2-8.5,12.7-21,14.3-24.6C68.8,10.9,68.9,10.6,69,10.5 M33.2,10.2c0.7-1.6,1.8-4.9,4.5-6.3c0.8-0.4,1.8-0.6,2.7-0.6
					c0.2,0,0.3,0,0.4,0c7.4,0,14.3,1,20.1,2.8c0.4,0.1,1.3,0.3,1.3,0.9c0,0.3-0.2,0.5-0.3,0.7c-0.1,0.1-0.2,0.2-0.4,0.3
					c-1.3,1.1-5.4,4.1-13.1,7c-2.7,1.1-6.1,2.3-9.6,3.1C36.8,18.4,29.2,19.6,33.2,10.2 M25.8,4.8c0.9-0.2,1.5-0.2,1.7,0.1
					c0.1,0.1,0.2,0.4,0,0.6c-0.1,0.2-0.2,0.3-0.4,0.5C20,14.4,14.5,27,12.9,30.6c-0.1,0.2-0.2,0.5-0.3,0.7c-0.2,0.3-0.4,0.5-0.7,0.5
					c-0.2,0-0.4,0-0.8-0.3c-4.8-2.9-7.7-6.6-7.7-10.6C3.3,13.6,12.6,7.5,25.8,4.8"/>
			</defs>
			<use xlink:href="#SVGID_36_"  style="overflow:visible;fill:#FFFFFF;"/>
			<clipPath id="SVGID_37_">
				<use xlink:href="#SVGID_36_"  style="overflow:visible;"/>
			</clipPath>
			<path class="st17" d="M78.2,21.2c-0.3,7-9.5,13-22.5,15.7c-0.9,0.2-1.4,0.2-1.6-0.1l0,0l-5.8,2.9c0.1,0.1,0.2,0.1,0.3,0.1
				c7.7-0.8,14.7-2.7,20.3-5.5c7-3.6,10.9-8.2,11.2-13L78.2,21.2"/>
		</g>
		<g>
			<defs>
				<path id="SVGID_38_" d="M40.8,41.7c22.5,0,40.8-9.3,40.8-20.8C81.5,9.3,63.3,0,40.8,0C18.2,0,0,9.3,0,20.8
					C0,32.3,18.2,41.7,40.8,41.7 M48.4,31.5c-0.7,1.6-1.8,4.9-4.5,6.3c-0.8,0.4-1.8,0.6-2.7,0.6c-0.2,0-0.3,0-0.4,0
					c-7.4,0-14.3-1-20-2.7c-0.4-0.1-1.4-0.4-1.4-0.9c0-0.3,0.1-0.5,0.3-0.7c0.1-0.1,0.2-0.2,0.4-0.3c1.3-1.1,5.4-4.1,13.1-7
					c2.7-1,6-2.3,9.6-3C44.8,23.2,52.5,22.1,48.4,31.5 M69,10.5c0.1-0.3,0.3-0.5,0.7-0.5c0.2,0,0.4,0,0.8,0.3
					c4.8,2.9,7.6,6.6,7.6,10.6c0,7.2-9.2,13.4-22.5,16.1c-0.9,0.2-1.4,0.2-1.6-0.1c-0.1-0.1-0.2-0.4,0-0.6c0.1-0.2,0.2-0.3,0.3-0.5
					c7.2-8.5,12.7-21,14.3-24.6C68.8,10.9,68.9,10.6,69,10.5 M33.2,10.2c0.7-1.6,1.8-4.9,4.5-6.3c0.8-0.4,1.8-0.6,2.7-0.6
					c0.2,0,0.3,0,0.4,0c7.4,0,14.3,1,20.1,2.8c0.4,0.1,1.3,0.3,1.3,0.9c0,0.3-0.2,0.5-0.3,0.7c-0.1,0.1-0.2,0.2-0.4,0.3
					c-1.3,1.1-5.4,4.1-13.1,7c-2.7,1.1-6.1,2.3-9.6,3.1C36.8,18.4,29.2,19.6,33.2,10.2 M25.8,4.8c0.9-0.2,1.5-0.2,1.7,0.1
					c0.1,0.1,0.2,0.4,0,0.6c-0.1,0.2-0.2,0.3-0.4,0.5C20,14.4,14.5,27,12.9,30.6c-0.1,0.2-0.2,0.5-0.3,0.7c-0.2,0.3-0.4,0.5-0.7,0.5
					c-0.2,0-0.4,0-0.8-0.3c-4.8-2.9-7.7-6.6-7.7-10.6C3.3,13.6,12.6,7.5,25.8,4.8"/>
			</defs>
			<use xlink:href="#SVGID_38_"  style="overflow:visible;fill:#FFFFFF;"/>
			<clipPath id="SVGID_39_">
				<use xlink:href="#SVGID_38_"  style="overflow:visible;"/>
			</clipPath>
			<g class="st18">
				<g>
					<defs>
						<polyline id="SVGID_40_" points="61,4.8 66.3,4.8 66.3,8.8 61,8.8 61,4.8 						"/>
					</defs>
					<use xlink:href="#SVGID_40_"  style="overflow:visible;fill:#FFFFFF;"/>
					<clipPath id="SVGID_41_">
						<use xlink:href="#SVGID_40_"  style="overflow:visible;"/>
					</clipPath>
					<path class="st19" d="M61,6.1L61,6.1L61,6.1C61.1,6.1,61.1,6.1,61,6.1"/>
				</g>
				<g>
					<defs>
						<polyline id="SVGID_42_" points="61,4.8 66.3,4.8 66.3,8.8 61,8.8 61,4.8 						"/>
					</defs>
					<use xlink:href="#SVGID_42_"  style="overflow:visible;fill:#FFFFFF;"/>
					<clipPath id="SVGID_43_">
						<use xlink:href="#SVGID_42_"  style="overflow:visible;"/>
					</clipPath>
					<path class="st20" d="M66.3,6.5l-4,0.4c0,0,0,0,0,0l0,0l0,0l0,0l0,0l0,0l0,0l0,0l0,0c0,0,0,0,0,0c0,0.3-0.2,0.5-0.3,0.7
						c0,0,0,0-0.1,0.1c-0.1,0.1-0.2,0.2-0.3,0.3l0,0c0,0-0.1,0.1-0.1,0.1c-0.1,0.1-0.2,0.1-0.3,0.2l3.5,0.6c0.8-0.7,1.3-1.5,1.6-2.1
						C66.3,6.7,66.3,6.6,66.3,6.5C66.3,6.5,66.3,6.5,66.3,6.5"/>
				</g>
				<g>
					<defs>
						<polyline id="SVGID_44_" points="61,4.8 66.3,4.8 66.3,8.8 61,8.8 61,4.8 						"/>
					</defs>
					<use xlink:href="#SVGID_44_"  style="overflow:visible;fill:#FFFFFF;"/>
					<clipPath id="SVGID_45_">
						<use xlink:href="#SVGID_44_"  style="overflow:visible;"/>
					</clipPath>
					<path class="st21" d="M62.8,4.8L61,6.1h0c0.5,0.1,1.2,0.3,1.2,0.8l4-0.4c0-0.2-0.3-0.4-0.6-0.5l0,0C64.8,5.6,63.8,5.2,62.8,4.8
						"/>
				</g>
			</g>
		</g>
		<g>
			<defs>
				<path id="SVGID_46_" d="M40.8,41.7c22.5,0,40.8-9.3,40.8-20.8C81.5,9.3,63.3,0,40.8,0C18.2,0,0,9.3,0,20.8
					C0,32.3,18.2,41.7,40.8,41.7 M48.4,31.5c-0.7,1.6-1.8,4.9-4.5,6.3c-0.8,0.4-1.8,0.6-2.7,0.6c-0.2,0-0.3,0-0.4,0
					c-7.4,0-14.3-1-20-2.7c-0.4-0.1-1.4-0.4-1.4-0.9c0-0.3,0.1-0.5,0.3-0.7c0.1-0.1,0.2-0.2,0.4-0.3c1.3-1.1,5.4-4.1,13.1-7
					c2.7-1,6-2.3,9.6-3C44.8,23.2,52.5,22.1,48.4,31.5 M69,10.5c0.1-0.3,0.3-0.5,0.7-0.5c0.2,0,0.4,0,0.8,0.3
					c4.8,2.9,7.6,6.6,7.6,10.6c0,7.2-9.2,13.4-22.5,16.1c-0.9,0.2-1.4,0.2-1.6-0.1c-0.1-0.1-0.2-0.4,0-0.6c0.1-0.2,0.2-0.3,0.3-0.5
					c7.2-8.5,12.7-21,14.3-24.6C68.8,10.9,68.9,10.6,69,10.5 M33.2,10.2c0.7-1.6,1.8-4.9,4.5-6.3c0.8-0.4,1.8-0.6,2.7-0.6
					c0.2,0,0.3,0,0.4,0c7.4,0,14.3,1,20.1,2.8c0.4,0.1,1.3,0.3,1.3,0.9c0,0.3-0.2,0.5-0.3,0.7c-0.1,0.1-0.2,0.2-0.4,0.3
					c-1.3,1.1-5.4,4.1-13.1,7c-2.7,1.1-6.1,2.3-9.6,3.1C36.8,18.4,29.2,19.6,33.2,10.2 M25.8,4.8c0.9-0.2,1.5-0.2,1.7,0.1
					c0.1,0.1,0.2,0.4,0,0.6c-0.1,0.2-0.2,0.3-0.4,0.5C20,14.4,14.5,27,12.9,30.6c-0.1,0.2-0.2,0.5-0.3,0.7c-0.2,0.3-0.4,0.5-0.7,0.5
					c-0.2,0-0.4,0-0.8-0.3c-4.8-2.9-7.7-6.6-7.7-10.6C3.3,13.6,12.6,7.5,25.8,4.8"/>
			</defs>
			<use xlink:href="#SVGID_46_"  style="overflow:visible;fill:#FFFFFF;"/>
			<clipPath id="SVGID_47_">
				<use xlink:href="#SVGID_46_"  style="overflow:visible;"/>
			</clipPath>
			<path class="st22" d="M15.2,35.1C15.2,35.1,15.2,35.1,15.2,35.1c0,0.1,0,0.1,0,0.2l0,0l0,0C15.2,35.2,15.2,35.2,15.2,35.1
				L15.2,35.1"/>
		</g>
		<g>
			<defs>
				<path id="SVGID_48_" d="M40.8,41.7c22.5,0,40.8-9.3,40.8-20.8C81.5,9.3,63.3,0,40.8,0C18.2,0,0,9.3,0,20.8
					C0,32.3,18.2,41.7,40.8,41.7 M48.4,31.5c-0.7,1.6-1.8,4.9-4.5,6.3c-0.8,0.4-1.8,0.6-2.7,0.6c-0.2,0-0.3,0-0.4,0
					c-7.4,0-14.3-1-20-2.7c-0.4-0.1-1.4-0.4-1.4-0.9c0-0.3,0.1-0.5,0.3-0.7c0.1-0.1,0.2-0.2,0.4-0.3c1.3-1.1,5.4-4.1,13.1-7
					c2.7-1,6-2.3,9.6-3C44.8,23.2,52.5,22.1,48.4,31.5 M69,10.5c0.1-0.3,0.3-0.5,0.7-0.5c0.2,0,0.4,0,0.8,0.3
					c4.8,2.9,7.6,6.6,7.6,10.6c0,7.2-9.2,13.4-22.5,16.1c-0.9,0.2-1.4,0.2-1.6-0.1c-0.1-0.1-0.2-0.4,0-0.6c0.1-0.2,0.2-0.3,0.3-0.5
					c7.2-8.5,12.7-21,14.3-24.6C68.8,10.9,68.9,10.6,69,10.5 M33.2,10.2c0.7-1.6,1.8-4.9,4.5-6.3c0.8-0.4,1.8-0.6,2.7-0.6
					c0.2,0,0.3,0,0.4,0c7.4,0,14.3,1,20.1,2.8c0.4,0.1,1.3,0.3,1.3,0.9c0,0.3-0.2,0.5-0.3,0.7c-0.1,0.1-0.2,0.2-0.4,0.3
					c-1.3,1.1-5.4,4.1-13.1,7c-2.7,1.1-6.1,2.3-9.6,3.1C36.8,18.4,29.2,19.6,33.2,10.2 M25.8,4.8c0.9-0.2,1.5-0.2,1.7,0.1
					c0.1,0.1,0.2,0.4,0,0.6c-0.1,0.2-0.2,0.3-0.4,0.5C20,14.4,14.5,27,12.9,30.6c-0.1,0.2-0.2,0.5-0.3,0.7c-0.2,0.3-0.4,0.5-0.7,0.5
					c-0.2,0-0.4,0-0.8-0.3c-4.8-2.9-7.7-6.6-7.7-10.6C3.3,13.6,12.6,7.5,25.8,4.8"/>
			</defs>
			<use xlink:href="#SVGID_48_"  style="overflow:visible;fill:#FFFFFF;"/>
			<clipPath id="SVGID_49_">
				<use xlink:href="#SVGID_48_"  style="overflow:visible;"/>
			</clipPath>
			<g class="st23">
				<g>
					<defs>
						<polyline id="SVGID_50_" points="15.2,32.6 20.7,32.6 20.7,36.7 15.2,36.7 15.2,32.6 						"/>
					</defs>
					<use xlink:href="#SVGID_50_"  style="overflow:visible;fill:#FFFFFF;"/>
					<clipPath id="SVGID_51_">
						<use xlink:href="#SVGID_50_"  style="overflow:visible;"/>
					</clipPath>
					<path class="st24" d="M15.8,35.7c0.9,0.4,1.8,0.7,2.7,1l0,0C17.6,36.4,16.7,36.1,15.8,35.7 M16.3,33.4c-0.5,0.5-0.8,1-1,1.5
						c0,0.1,0,0.1,0,0.2l0,0c0,0,0-0.1,0-0.2C15.5,34.5,15.8,34,16.3,33.4"/>
				</g>
				<g>
					<defs>
						<polyline id="SVGID_52_" points="15.2,32.6 20.7,32.6 20.7,36.7 15.2,36.7 15.2,32.6 						"/>
					</defs>
					<use xlink:href="#SVGID_52_"  style="overflow:visible;fill:#FFFFFF;"/>
					<clipPath id="SVGID_53_">
						<use xlink:href="#SVGID_52_"  style="overflow:visible;"/>
					</clipPath>
					<path class="st25" d="M17.1,32.6c-0.3,0.3-0.6,0.6-0.9,0.8c-0.5,0.5-0.8,1-1,1.5c0,0.1,0,0.1,0,0.2v0c0,0,0,0.1,0,0.1l0,0
						l4.1-0.5c0,0,0-0.1,0-0.1l0,0l0,0l0,0l0,0c0,0,0,0,0,0c0-0.2,0.1-0.5,0.3-0.7l0,0c0.1-0.1,0.2-0.2,0.4-0.3l0,0
						c0,0,0.1,0,0.1-0.1c0.1-0.1,0.2-0.2,0.3-0.3L17.1,32.6"/>
				</g>
				<g>
					<defs>
						<polyline id="SVGID_54_" points="15.2,32.6 20.7,32.6 20.7,36.7 15.2,36.7 15.2,32.6 						"/>
					</defs>
					<use xlink:href="#SVGID_54_"  style="overflow:visible;fill:#FFFFFF;"/>
					<clipPath id="SVGID_55_">
						<use xlink:href="#SVGID_54_"  style="overflow:visible;"/>
					</clipPath>
					<path class="st26" d="M19.4,34.8l-4.1,0.5c0.1,0.2,0.3,0.3,0.6,0.4l0,0c0.9,0.4,1.8,0.7,2.7,1l2.1-1.1c-0.3-0.1-0.7-0.2-1-0.4
						c-0.1-0.1-0.2-0.2-0.3-0.3C19.4,34.9,19.4,34.8,19.4,34.8"/>
				</g>
			</g>
		</g>
		<g>
			<defs>
				<path id="SVGID_56_" d="M40.8,41.7c22.5,0,40.8-9.3,40.8-20.8C81.5,9.3,63.3,0,40.8,0C18.2,0,0,9.3,0,20.8
					C0,32.3,18.2,41.7,40.8,41.7 M48.4,31.5c-0.7,1.6-1.8,4.9-4.5,6.3c-0.8,0.4-1.8,0.6-2.7,0.6c-0.2,0-0.3,0-0.4,0
					c-7.4,0-14.3-1-20-2.7c-0.4-0.1-1.4-0.4-1.4-0.9c0-0.3,0.1-0.5,0.3-0.7c0.1-0.1,0.2-0.2,0.4-0.3c1.3-1.1,5.4-4.1,13.1-7
					c2.7-1,6-2.3,9.6-3C44.8,23.2,52.5,22.1,48.4,31.5 M69,10.5c0.1-0.3,0.3-0.5,0.7-0.5c0.2,0,0.4,0,0.8,0.3
					c4.8,2.9,7.6,6.6,7.6,10.6c0,7.2-9.2,13.4-22.5,16.1c-0.9,0.2-1.4,0.2-1.6-0.1c-0.1-0.1-0.2-0.4,0-0.6c0.1-0.2,0.2-0.3,0.3-0.5
					c7.2-8.5,12.7-21,14.3-24.6C68.8,10.9,68.9,10.6,69,10.5 M33.2,10.2c0.7-1.6,1.8-4.9,4.5-6.3c0.8-0.4,1.8-0.6,2.7-0.6
					c0.2,0,0.3,0,0.4,0c7.4,0,14.3,1,20.1,2.8c0.4,0.1,1.3,0.3,1.3,0.9c0,0.3-0.2,0.5-0.3,0.7c-0.1,0.1-0.2,0.2-0.4,0.3
					c-1.3,1.1-5.4,4.1-13.1,7c-2.7,1.1-6.1,2.3-9.6,3.1C36.8,18.4,29.2,19.6,33.2,10.2 M25.8,4.8c0.9-0.2,1.5-0.2,1.7,0.1
					c0.1,0.1,0.2,0.4,0,0.6c-0.1,0.2-0.2,0.3-0.4,0.5C20,14.4,14.5,27,12.9,30.6c-0.1,0.2-0.2,0.5-0.3,0.7c-0.2,0.3-0.4,0.5-0.7,0.5
					c-0.2,0-0.4,0-0.8-0.3c-4.8-2.9-7.7-6.6-7.7-10.6C3.3,13.6,12.6,7.5,25.8,4.8"/>
			</defs>
			<use xlink:href="#SVGID_56_"  style="overflow:visible;fill:#FFFFFF;"/>
			<clipPath id="SVGID_57_">
				<use xlink:href="#SVGID_56_"  style="overflow:visible;"/>
			</clipPath>
			<g class="st27">
				<g>
					<defs>
						<polyline id="SVGID_58_" points="66.1,6.8 71.2,6.8 71.2,11.4 66.1,11.4 66.1,6.8 						"/>
					</defs>
					<use xlink:href="#SVGID_58_"  style="overflow:visible;fill:#FFFFFF;"/>
					<clipPath id="SVGID_59_">
						<use xlink:href="#SVGID_58_"  style="overflow:visible;"/>
					</clipPath>
					<path class="st28" d="M67.6,6.8c-0.1,0-0.2,0-0.2,0c-0.1,0.1-0.2,0.1-0.3,0.2c-0.3,0.8-0.7,1.5-1.1,2.2l0,0
						c0.3-0.7,0.7-1.5,1.1-2.2c0.1-0.1,0.2-0.2,0.3-0.2l1.8,2.8l0,0l-1.8-2.7C67.5,6.9,67.5,6.8,67.6,6.8c0.1,0,0.2,0,0.3,0.1
						c0.3,0.2,0.7,0.3,1,0.5c0.5,0.2,1,0.5,1.4,0.8c-0.5-0.3-0.9-0.5-1.4-0.8c-0.3-0.2-0.6-0.3-1-0.5C67.8,6.9,67.7,6.8,67.6,6.8"/>
				</g>
				<g>
					<defs>
						<polyline id="SVGID_60_" points="66.1,6.8 71.2,6.8 71.2,11.4 66.1,11.4 66.1,6.8 						"/>
					</defs>
					<use xlink:href="#SVGID_60_"  style="overflow:visible;fill:#FFFFFF;"/>
					<clipPath id="SVGID_61_">
						<use xlink:href="#SVGID_60_"  style="overflow:visible;"/>
					</clipPath>
					<path class="st29" d="M67.4,6.9c-0.1,0.1-0.2,0.1-0.3,0.2c-0.3,0.8-0.7,1.5-1.1,2.2l2.4,2.1c0,0,0-0.1,0-0.1c0,0,0,0,0,0
						c0-0.1,0.1-0.2,0.1-0.3l0,0c0.1-0.2,0.2-0.5,0.3-0.6l0,0c0-0.1,0.1-0.1,0.1-0.2c0-0.1,0.1-0.1,0.1-0.1c0.1-0.1,0.1-0.1,0.2-0.1
						l-0.2-0.4L67.4,6.9"/>
				</g>
				<g>
					<defs>
						<polyline id="SVGID_62_" points="66.1,6.8 71.2,6.8 71.2,11.4 66.1,11.4 66.1,6.8 						"/>
					</defs>
					<use xlink:href="#SVGID_62_"  style="overflow:visible;fill:#FFFFFF;"/>
					<clipPath id="SVGID_63_">
						<use xlink:href="#SVGID_62_"  style="overflow:visible;"/>
					</clipPath>
					<path class="st30" d="M67.6,6.8c-0.1,0-0.2,0-0.2,0l1.8,2.7l0.2,0.4c0,0,0,0,0,0c0.1,0,0.1,0,0.2,0l0,0c0,0,0.1,0,0.1,0l0,0
						l0,0c0.2,0,0.4,0.1,0.7,0.3l0,0c0.2,0.1,0.3,0.2,0.5,0.3l0.2-1.9c-0.3-0.2-0.6-0.3-0.8-0.5c-0.5-0.3-0.9-0.5-1.4-0.8
						c-0.3-0.2-0.6-0.3-1-0.5C67.8,6.9,67.7,6.8,67.6,6.8"/>
				</g>
			</g>
		</g>
		<g>
			<defs>
				<path id="SVGID_64_" d="M40.8,41.7c22.5,0,40.8-9.3,40.8-20.8C81.5,9.3,63.3,0,40.8,0C18.2,0,0,9.3,0,20.8
					C0,32.3,18.2,41.7,40.8,41.7 M48.4,31.5c-0.7,1.6-1.8,4.9-4.5,6.3c-0.8,0.4-1.8,0.6-2.7,0.6c-0.2,0-0.3,0-0.4,0
					c-7.4,0-14.3-1-20-2.7c-0.4-0.1-1.4-0.4-1.4-0.9c0-0.3,0.1-0.5,0.3-0.7c0.1-0.1,0.2-0.2,0.4-0.3c1.3-1.1,5.4-4.1,13.1-7
					c2.7-1,6-2.3,9.6-3C44.8,23.2,52.5,22.1,48.4,31.5 M69,10.5c0.1-0.3,0.3-0.5,0.7-0.5c0.2,0,0.4,0,0.8,0.3
					c4.8,2.9,7.6,6.6,7.6,10.6c0,7.2-9.2,13.4-22.5,16.1c-0.9,0.2-1.4,0.2-1.6-0.1c-0.1-0.1-0.2-0.4,0-0.6c0.1-0.2,0.2-0.3,0.3-0.5
					c7.2-8.5,12.7-21,14.3-24.6C68.8,10.9,68.9,10.6,69,10.5 M33.2,10.2c0.7-1.6,1.8-4.9,4.5-6.3c0.8-0.4,1.8-0.6,2.7-0.6
					c0.2,0,0.3,0,0.4,0c7.4,0,14.3,1,20.1,2.8c0.4,0.1,1.3,0.3,1.3,0.9c0,0.3-0.2,0.5-0.3,0.7c-0.1,0.1-0.2,0.2-0.4,0.3
					c-1.3,1.1-5.4,4.1-13.1,7c-2.7,1.1-6.1,2.3-9.6,3.1C36.8,18.4,29.2,19.6,33.2,10.2 M25.8,4.8c0.9-0.2,1.5-0.2,1.7,0.1
					c0.1,0.1,0.2,0.4,0,0.6c-0.1,0.2-0.2,0.3-0.4,0.5C20,14.4,14.5,27,12.9,30.6c-0.1,0.2-0.2,0.5-0.3,0.7c-0.2,0.3-0.4,0.5-0.7,0.5
					c-0.2,0-0.4,0-0.8-0.3c-4.8-2.9-7.7-6.6-7.7-10.6C3.3,13.6,12.6,7.5,25.8,4.8"/>
			</defs>
			<use xlink:href="#SVGID_64_"  style="overflow:visible;fill:#FFFFFF;"/>
			<clipPath id="SVGID_65_">
				<use xlink:href="#SVGID_64_"  style="overflow:visible;"/>
			</clipPath>
			<g class="st31">
				<g>
					<defs>
						<polyline id="SVGID_66_" points="32.9,1.5 39.4,1.5 39.4,6 32.9,6 32.9,1.5 						"/>
					</defs>
					<use xlink:href="#SVGID_66_"  style="overflow:visible;fill:#FFFFFF;"/>
					<clipPath id="SVGID_67_">
						<use xlink:href="#SVGID_66_"  style="overflow:visible;"/>
					</clipPath>
					<path class="st32" d="M36,5.2c-0.2,0.2-0.5,0.5-0.7,0.8l0,0C35.5,5.7,35.8,5.5,36,5.2"/>
				</g>
				<g>
					<defs>
						<polyline id="SVGID_68_" points="32.9,1.5 39.4,1.5 39.4,6 32.9,6 32.9,1.5 						"/>
					</defs>
					<use xlink:href="#SVGID_68_"  style="overflow:visible;fill:#FFFFFF;"/>
					<clipPath id="SVGID_69_">
						<use xlink:href="#SVGID_68_"  style="overflow:visible;"/>
					</clipPath>
					<path class="st33" d="M34.7,2c-0.2,0.1-0.3,0.2-0.4,0.3l0,0c-0.5,0.6-0.9,1.3-1.4,2L35.3,6c0.2-0.3,0.4-0.6,0.7-0.8
						c0.4-0.4,0.8-0.7,1.2-1L34.7,2"/>
				</g>
				<g>
					<defs>
						<polyline id="SVGID_70_" points="32.9,1.5 39.4,1.5 39.4,6 32.9,6 32.9,1.5 						"/>
					</defs>
					<use xlink:href="#SVGID_70_"  style="overflow:visible;fill:#FFFFFF;"/>
					<clipPath id="SVGID_71_">
						<use xlink:href="#SVGID_70_"  style="overflow:visible;"/>
					</clipPath>
					<path class="st34" d="M39.4,1.5c-1,0-2,0-3,0.1l0,0c-0.8,0-1.4,0.2-1.8,0.4l2.6,2.2c0.2-0.1,0.3-0.2,0.5-0.3l0,0l0,0
						c0.5-0.2,1.1-0.4,1.7-0.5L39.4,1.5"/>
				</g>
			</g>
		</g>
		<g>
			<defs>
				<path id="SVGID_72_" d="M40.8,41.7c22.5,0,40.8-9.3,40.8-20.8C81.5,9.3,63.3,0,40.8,0C18.2,0,0,9.3,0,20.8
					C0,32.3,18.2,41.7,40.8,41.7 M48.4,31.5c-0.7,1.6-1.8,4.9-4.5,6.3c-0.8,0.4-1.8,0.6-2.7,0.6c-0.2,0-0.3,0-0.4,0
					c-7.4,0-14.3-1-20-2.7c-0.4-0.1-1.4-0.4-1.4-0.9c0-0.3,0.1-0.5,0.3-0.7c0.1-0.1,0.2-0.2,0.4-0.3c1.3-1.1,5.4-4.1,13.1-7
					c2.7-1,6-2.3,9.6-3C44.8,23.2,52.5,22.1,48.4,31.5 M69,10.5c0.1-0.3,0.3-0.5,0.7-0.5c0.2,0,0.4,0,0.8,0.3
					c4.8,2.9,7.6,6.6,7.6,10.6c0,7.2-9.2,13.4-22.5,16.1c-0.9,0.2-1.4,0.2-1.6-0.1c-0.1-0.1-0.2-0.4,0-0.6c0.1-0.2,0.2-0.3,0.3-0.5
					c7.2-8.5,12.7-21,14.3-24.6C68.8,10.9,68.9,10.6,69,10.5 M33.2,10.2c0.7-1.6,1.8-4.9,4.5-6.3c0.8-0.4,1.8-0.6,2.7-0.6
					c0.2,0,0.3,0,0.4,0c7.4,0,14.3,1,20.1,2.8c0.4,0.1,1.3,0.3,1.3,0.9c0,0.3-0.2,0.5-0.3,0.7c-0.1,0.1-0.2,0.2-0.4,0.3
					c-1.3,1.1-5.4,4.1-13.1,7c-2.7,1.1-6.1,2.3-9.6,3.1C36.8,18.4,29.2,19.6,33.2,10.2 M25.8,4.8c0.9-0.2,1.5-0.2,1.7,0.1
					c0.1,0.1,0.2,0.4,0,0.6c-0.1,0.2-0.2,0.3-0.4,0.5C20,14.4,14.5,27,12.9,30.6c-0.1,0.2-0.2,0.5-0.3,0.7c-0.2,0.3-0.4,0.5-0.7,0.5
					c-0.2,0-0.4,0-0.8-0.3c-4.8-2.9-7.7-6.6-7.7-10.6C3.3,13.6,12.6,7.5,25.8,4.8"/>
			</defs>
			<use xlink:href="#SVGID_72_"  style="overflow:visible;fill:#FFFFFF;"/>
			<clipPath id="SVGID_73_">
				<use xlink:href="#SVGID_72_"  style="overflow:visible;"/>
			</clipPath>
			<g class="st35">
				<g>
					<defs>
						<polyline id="SVGID_74_" points="36.3,32.7 50.5,32.7 50.5,40.2 36.3,40.2 36.3,32.7 						"/>
					</defs>
					<use xlink:href="#SVGID_74_"  style="overflow:visible;fill:#FFFFFF;"/>
					<clipPath id="SVGID_75_">
						<use xlink:href="#SVGID_74_"  style="overflow:visible;"/>
					</clipPath>
					<g class="st36">
						<g>
							<defs>
								<path id="SVGID_76_" d="M40.7,40.2C40.7,40.2,40.7,40.2,40.7,40.2C40.7,40.2,40.7,40.2,40.7,40.2 M50.4,34.6
									c0,0,0,0.1-0.1,0.1C50.3,34.6,50.3,34.6,50.4,34.6"/>
							</defs>
							<use xlink:href="#SVGID_76_"  style="overflow:visible;fill:#FFFFFF;"/>
							<clipPath id="SVGID_77_">
								<use xlink:href="#SVGID_76_"  style="overflow:visible;"/>
							</clipPath>
							<g class="st37">
								
									<image style="overflow:visible;enable-background:new    ;" width="33" height="22" xlink:href="A1E3C3B1.jpeg"  transform="matrix(0.2988 0 0 -0.2988 40.6148 40.555)">
								</image>
							</g>
						</g>
					</g>
				</g>
				<g>
					<defs>
						<polyline id="SVGID_78_" points="36.3,32.7 50.5,32.7 50.5,40.2 36.3,40.2 36.3,32.7 						"/>
					</defs>
					<use xlink:href="#SVGID_78_"  style="overflow:visible;fill:#FFFFFF;"/>
					<clipPath id="SVGID_79_">
						<use xlink:href="#SVGID_78_"  style="overflow:visible;"/>
					</clipPath>
					<path class="st38" d="M47.9,32.7c-0.3,0.8-0.7,1.6-1.3,2.4c-0.7,1-1.5,2-2.6,2.5l2.9,2l0,0c0.2-0.1,0.3-0.2,0.4-0.3
						c1.1-1.5,2.1-3.1,3-4.7l0,0c0,0,0-0.1,0.1-0.1c0.1-0.1,0.1-0.2,0.2-0.3L47.9,32.7"/>
				</g>
				<g>
					<defs>
						<polyline id="SVGID_80_" points="36.3,32.7 50.5,32.7 50.5,40.2 36.3,40.2 36.3,32.7 						"/>
					</defs>
					<use xlink:href="#SVGID_80_"  style="overflow:visible;fill:#FFFFFF;"/>
					<clipPath id="SVGID_81_">
						<use xlink:href="#SVGID_80_"  style="overflow:visible;"/>
					</clipPath>
					<path class="st39" d="M44,37.7c0,0-0.1,0-0.1,0.1c-0.8,0.4-1.8,0.6-2.7,0.6c-0.1,0-0.1,0-0.2,0c-0.1,0-0.2,0-0.2,0
						c-1.4,0-2.8,0-4.1-0.1L36.3,40c1.5,0.1,2.9,0.1,4.4,0.1l0,0c0,0,0,0,0.1,0c1.5,0,2.9,0,4.3-0.1c0.8,0,1.4-0.2,1.8-0.4L44,37.7"
						/>
				</g>
			</g>
		</g>
		<g>
			<defs>
				<path id="SVGID_82_" d="M40.8,41.7c22.5,0,40.8-9.3,40.8-20.8C81.5,9.3,63.3,0,40.8,0C18.2,0,0,9.3,0,20.8
					C0,32.3,18.2,41.7,40.8,41.7 M48.4,31.5c-0.7,1.6-1.8,4.9-4.5,6.3c-0.8,0.4-1.8,0.6-2.7,0.6c-0.2,0-0.3,0-0.4,0
					c-7.4,0-14.3-1-20-2.7c-0.4-0.1-1.4-0.4-1.4-0.9c0-0.3,0.1-0.5,0.3-0.7c0.1-0.1,0.2-0.2,0.4-0.3c1.3-1.1,5.4-4.1,13.1-7
					c2.7-1,6-2.3,9.6-3C44.8,23.2,52.5,22.1,48.4,31.5 M69,10.5c0.1-0.3,0.3-0.5,0.7-0.5c0.2,0,0.4,0,0.8,0.3
					c4.8,2.9,7.6,6.6,7.6,10.6c0,7.2-9.2,13.4-22.5,16.1c-0.9,0.2-1.4,0.2-1.6-0.1c-0.1-0.1-0.2-0.4,0-0.6c0.1-0.2,0.2-0.3,0.3-0.5
					c7.2-8.5,12.7-21,14.3-24.6C68.8,10.9,68.9,10.6,69,10.5 M33.2,10.2c0.7-1.6,1.8-4.9,4.5-6.3c0.8-0.4,1.8-0.6,2.7-0.6
					c0.2,0,0.3,0,0.4,0c7.4,0,14.3,1,20.1,2.8c0.4,0.1,1.3,0.3,1.3,0.9c0,0.3-0.2,0.5-0.3,0.7c-0.1,0.1-0.2,0.2-0.4,0.3
					c-1.3,1.1-5.4,4.1-13.1,7c-2.7,1.1-6.1,2.3-9.6,3.1C36.8,18.4,29.2,19.6,33.2,10.2 M25.8,4.8c0.9-0.2,1.5-0.2,1.7,0.1
					c0.1,0.1,0.2,0.4,0,0.6c-0.1,0.2-0.2,0.3-0.4,0.5C20,14.4,14.5,27,12.9,30.6c-0.1,0.2-0.2,0.5-0.3,0.7c-0.2,0.3-0.4,0.5-0.7,0.5
					c-0.2,0-0.4,0-0.8-0.3c-4.8-2.9-7.7-6.6-7.7-10.6C3.3,13.6,12.6,7.5,25.8,4.8"/>
			</defs>
			<use xlink:href="#SVGID_82_"  style="overflow:visible;fill:#FFFFFF;"/>
			<clipPath id="SVGID_83_">
				<use xlink:href="#SVGID_82_"  style="overflow:visible;"/>
			</clipPath>
			<path class="st40" d="M27.6,4.9c0.1,0.1,0.1,0.3-0.1,0.5c-0.1,0.2-0.2,0.3-0.4,0.5C20,14.4,14.5,27,13,30.6
				c-0.1,0.2-0.2,0.5-0.3,0.7c-0.1,0.2-0.2,0.3-0.4,0.4l2,3.1c0.1,0,0.2-0.1,0.3-0.3c4.3-9.2,8.9-17.7,14.6-26.1
				c1.4-2,2.9-4,4.2-6.1c0.1-0.1,0.1-0.2,0.1-0.3L27.6,4.9"/>
		</g>
		<g>
			<defs>
				<path id="SVGID_84_" d="M40.8,41.7c22.5,0,40.8-9.3,40.8-20.8C81.5,9.3,63.3,0,40.8,0C18.2,0,0,9.3,0,20.8
					C0,32.3,18.2,41.7,40.8,41.7 M48.4,31.5c-0.7,1.6-1.8,4.9-4.5,6.3c-0.8,0.4-1.8,0.6-2.7,0.6c-0.2,0-0.3,0-0.4,0
					c-7.4,0-14.3-1-20-2.7c-0.4-0.1-1.4-0.4-1.4-0.9c0-0.3,0.1-0.5,0.3-0.7c0.1-0.1,0.2-0.2,0.4-0.3c1.3-1.1,5.4-4.1,13.1-7
					c2.7-1,6-2.3,9.6-3C44.8,23.2,52.5,22.1,48.4,31.5 M69,10.5c0.1-0.3,0.3-0.5,0.7-0.5c0.2,0,0.4,0,0.8,0.3
					c4.8,2.9,7.6,6.6,7.6,10.6c0,7.2-9.2,13.4-22.5,16.1c-0.9,0.2-1.4,0.2-1.6-0.1c-0.1-0.1-0.2-0.4,0-0.6c0.1-0.2,0.2-0.3,0.3-0.5
					c7.2-8.5,12.7-21,14.3-24.6C68.8,10.9,68.9,10.6,69,10.5 M33.2,10.2c0.7-1.6,1.8-4.9,4.5-6.3c0.8-0.4,1.8-0.6,2.7-0.6
					c0.2,0,0.3,0,0.4,0c7.4,0,14.3,1,20.1,2.8c0.4,0.1,1.3,0.3,1.3,0.9c0,0.3-0.2,0.5-0.3,0.7c-0.1,0.1-0.2,0.2-0.4,0.3
					c-1.3,1.1-5.4,4.1-13.1,7c-2.7,1.1-6.1,2.3-9.6,3.1C36.8,18.4,29.2,19.6,33.2,10.2 M25.8,4.8c0.9-0.2,1.5-0.2,1.7,0.1
					c0.1,0.1,0.2,0.4,0,0.6c-0.1,0.2-0.2,0.3-0.4,0.5C20,14.4,14.5,27,12.9,30.6c-0.1,0.2-0.2,0.5-0.3,0.7c-0.2,0.3-0.4,0.5-0.7,0.5
					c-0.2,0-0.4,0-0.8-0.3c-4.8-2.9-7.7-6.6-7.7-10.6C3.3,13.6,12.6,7.5,25.8,4.8"/>
			</defs>
			<use xlink:href="#SVGID_84_"  style="overflow:visible;fill:#FFFFFF;"/>
			<clipPath id="SVGID_85_">
				<use xlink:href="#SVGID_84_"  style="overflow:visible;"/>
			</clipPath>
			<g class="st41">
				<g>
					<defs>
						<polyline id="SVGID_86_" points="10,29.5 16,29.5 16,34.8 10,34.8 10,29.5 						"/>
					</defs>
					<use xlink:href="#SVGID_86_"  style="overflow:visible;fill:#FFFFFF;"/>
					<clipPath id="SVGID_87_">
						<use xlink:href="#SVGID_86_"  style="overflow:visible;"/>
					</clipPath>
					<path class="st42" d="M13.2,30C13.2,30,13.2,30.1,13.2,30c-0.1,0.2-0.2,0.4-0.2,0.5C13,30.4,13.1,30.2,13.2,30"/>
				</g>
				<g>
					<defs>
						<polyline id="SVGID_88_" points="10,29.5 16,29.5 16,34.8 10,34.8 10,29.5 						"/>
					</defs>
					<use xlink:href="#SVGID_88_"  style="overflow:visible;fill:#FFFFFF;"/>
					<clipPath id="SVGID_89_">
						<use xlink:href="#SVGID_88_"  style="overflow:visible;"/>
					</clipPath>
					<path class="st43" d="M11.2,33.5c0.5,0.3,0.9,0.5,1.4,0.8C12.1,34,11.7,33.8,11.2,33.5"/>
				</g>
				<g>
					<defs>
						<polyline id="SVGID_90_" points="10,29.5 16,29.5 16,34.8 10,34.8 10,29.5 						"/>
					</defs>
					<use xlink:href="#SVGID_90_"  style="overflow:visible;fill:#FFFFFF;"/>
					<clipPath id="SVGID_91_">
						<use xlink:href="#SVGID_90_"  style="overflow:visible;"/>
					</clipPath>
					<path class="st44" d="M10,30.7l0.2,2.2c0.4,0.2,0.7,0.4,1.1,0.6c0.5,0.3,0.9,0.5,1.4,0.8l0,0c0.3,0.2,0.6,0.3,1,0.5
						c0.1,0,0.2,0.1,0.3,0.1c0.1,0,0.2,0,0.2,0l-2-3.1c0,0-0.1,0-0.1,0c0,0-0.1,0-0.1,0l0,0c-0.2,0-0.4,0-0.8-0.3l0,0
						c-0.2-0.1-0.4-0.3-0.6-0.4C10.3,30.9,10.1,30.8,10,30.7"/>
				</g>
				<g>
					<defs>
						<polyline id="SVGID_92_" points="10,29.5 16,29.5 16,34.8 10,34.8 10,29.5 						"/>
					</defs>
					<use xlink:href="#SVGID_92_"  style="overflow:visible;fill:#FFFFFF;"/>
					<clipPath id="SVGID_93_">
						<use xlink:href="#SVGID_92_"  style="overflow:visible;"/>
					</clipPath>
					<path class="st45" d="M16,31.2c-0.5,1.1-1,2.2-1.6,3.3C14.9,33.4,15.5,32.3,16,31.2L16,31.2"/>
				</g>
				<g>
					<defs>
						<polyline id="SVGID_94_" points="10,29.5 16,29.5 16,34.8 10,34.8 10,29.5 						"/>
					</defs>
					<use xlink:href="#SVGID_94_"  style="overflow:visible;fill:#FFFFFF;"/>
					<clipPath id="SVGID_95_">
						<use xlink:href="#SVGID_94_"  style="overflow:visible;"/>
					</clipPath>
					<path class="st46" d="M13.4,29.5c-0.1,0.2-0.1,0.3-0.2,0.5c-0.1,0.2-0.2,0.4-0.2,0.5l0,0v0c-0.1,0.2-0.2,0.5-0.3,0.7
						c-0.1,0.2-0.2,0.3-0.4,0.4l2,3.1l0,0c0.1,0,0.2-0.1,0.3-0.3l0,0c0.5-1.1,1-2.2,1.6-3.3L13.4,29.5"/>
				</g>
			</g>
		</g>
		<g>
			<defs>
				<path id="SVGID_96_" d="M40.8,41.7c22.5,0,40.8-9.3,40.8-20.8C81.5,9.3,63.3,0,40.8,0C18.2,0,0,9.3,0,20.8
					C0,32.3,18.2,41.7,40.8,41.7 M48.4,31.5c-0.7,1.6-1.8,4.9-4.5,6.3c-0.8,0.4-1.8,0.6-2.7,0.6c-0.2,0-0.3,0-0.4,0
					c-7.4,0-14.3-1-20-2.7c-0.4-0.1-1.4-0.4-1.4-0.9c0-0.3,0.1-0.5,0.3-0.7c0.1-0.1,0.2-0.2,0.4-0.3c1.3-1.1,5.4-4.1,13.1-7
					c2.7-1,6-2.3,9.6-3C44.8,23.2,52.5,22.1,48.4,31.5 M69,10.5c0.1-0.3,0.3-0.5,0.7-0.5c0.2,0,0.4,0,0.8,0.3
					c4.8,2.9,7.6,6.6,7.6,10.6c0,7.2-9.2,13.4-22.5,16.1c-0.9,0.2-1.4,0.2-1.6-0.1c-0.1-0.1-0.2-0.4,0-0.6c0.1-0.2,0.2-0.3,0.3-0.5
					c7.2-8.5,12.7-21,14.3-24.6C68.8,10.9,68.9,10.6,69,10.5 M33.2,10.2c0.7-1.6,1.8-4.9,4.5-6.3c0.8-0.4,1.8-0.6,2.7-0.6
					c0.2,0,0.3,0,0.4,0c7.4,0,14.3,1,20.1,2.8c0.4,0.1,1.3,0.3,1.3,0.9c0,0.3-0.2,0.5-0.3,0.7c-0.1,0.1-0.2,0.2-0.4,0.3
					c-1.3,1.1-5.4,4.1-13.1,7c-2.7,1.1-6.1,2.3-9.6,3.1C36.8,18.4,29.2,19.6,33.2,10.2 M25.8,4.8c0.9-0.2,1.5-0.2,1.7,0.1
					c0.1,0.1,0.2,0.4,0,0.6c-0.1,0.2-0.2,0.3-0.4,0.5C20,14.4,14.5,27,12.9,30.6c-0.1,0.2-0.2,0.5-0.3,0.7c-0.2,0.3-0.4,0.5-0.7,0.5
					c-0.2,0-0.4,0-0.8-0.3c-4.8-2.9-7.7-6.6-7.7-10.6C3.3,13.6,12.6,7.5,25.8,4.8"/>
			</defs>
			<use xlink:href="#SVGID_96_"  style="overflow:visible;fill:#FFFFFF;"/>
			<clipPath id="SVGID_97_">
				<use xlink:href="#SVGID_96_"  style="overflow:visible;"/>
			</clipPath>
			<polyline class="st47" points="33,1.9 33,1.9 33,1.9 33,1.9 			"/>
		</g>
		<g>
			<defs>
				<path id="SVGID_98_" d="M40.8,41.7c22.5,0,40.8-9.3,40.8-20.8C81.5,9.3,63.3,0,40.8,0C18.2,0,0,9.3,0,20.8
					C0,32.3,18.2,41.7,40.8,41.7 M48.4,31.5c-0.7,1.6-1.8,4.9-4.5,6.3c-0.8,0.4-1.8,0.6-2.7,0.6c-0.2,0-0.3,0-0.4,0
					c-7.4,0-14.3-1-20-2.7c-0.4-0.1-1.4-0.4-1.4-0.9c0-0.3,0.1-0.5,0.3-0.7c0.1-0.1,0.2-0.2,0.4-0.3c1.3-1.1,5.4-4.1,13.1-7
					c2.7-1,6-2.3,9.6-3C44.8,23.2,52.5,22.1,48.4,31.5 M69,10.5c0.1-0.3,0.3-0.5,0.7-0.5c0.2,0,0.4,0,0.8,0.3
					c4.8,2.9,7.6,6.6,7.6,10.6c0,7.2-9.2,13.4-22.5,16.1c-0.9,0.2-1.4,0.2-1.6-0.1c-0.1-0.1-0.2-0.4,0-0.6c0.1-0.2,0.2-0.3,0.3-0.5
					c7.2-8.5,12.7-21,14.3-24.6C68.8,10.9,68.9,10.6,69,10.5 M33.2,10.2c0.7-1.6,1.8-4.9,4.5-6.3c0.8-0.4,1.8-0.6,2.7-0.6
					c0.2,0,0.3,0,0.4,0c7.4,0,14.3,1,20.1,2.8c0.4,0.1,1.3,0.3,1.3,0.9c0,0.3-0.2,0.5-0.3,0.7c-0.1,0.1-0.2,0.2-0.4,0.3
					c-1.3,1.1-5.4,4.1-13.1,7c-2.7,1.1-6.1,2.3-9.6,3.1C36.8,18.4,29.2,19.6,33.2,10.2 M25.8,4.8c0.9-0.2,1.5-0.2,1.7,0.1
					c0.1,0.1,0.2,0.4,0,0.6c-0.1,0.2-0.2,0.3-0.4,0.5C20,14.4,14.5,27,12.9,30.6c-0.1,0.2-0.2,0.5-0.3,0.7c-0.2,0.3-0.4,0.5-0.7,0.5
					c-0.2,0-0.4,0-0.8-0.3c-4.8-2.9-7.7-6.6-7.7-10.6C3.3,13.6,12.6,7.5,25.8,4.8"/>
			</defs>
			<use xlink:href="#SVGID_98_"  style="overflow:visible;fill:#FFFFFF;"/>
			<clipPath id="SVGID_99_">
				<use xlink:href="#SVGID_98_"  style="overflow:visible;"/>
			</clipPath>
			<path class="st48" d="M33.4,2.1L33.4,2.1c0,0.1,0,0.1-0.1,0.2l0,0l0,0l0,0C33.3,2.2,33.4,2.2,33.4,2.1L33.4,2.1"/>
		</g>
		<g>
			<defs>
				<path id="SVGID_100_" d="M40.8,41.7c22.5,0,40.8-9.3,40.8-20.8C81.5,9.3,63.3,0,40.8,0C18.2,0,0,9.3,0,20.8
					C0,32.3,18.2,41.7,40.8,41.7 M48.4,31.5c-0.7,1.6-1.8,4.9-4.5,6.3c-0.8,0.4-1.8,0.6-2.7,0.6c-0.2,0-0.3,0-0.4,0
					c-7.4,0-14.3-1-20-2.7c-0.4-0.1-1.4-0.4-1.4-0.9c0-0.3,0.1-0.5,0.3-0.7c0.1-0.1,0.2-0.2,0.4-0.3c1.3-1.1,5.4-4.1,13.1-7
					c2.7-1,6-2.3,9.6-3C44.8,23.2,52.5,22.1,48.4,31.5 M69,10.5c0.1-0.3,0.3-0.5,0.7-0.5c0.2,0,0.4,0,0.8,0.3
					c4.8,2.9,7.6,6.6,7.6,10.6c0,7.2-9.2,13.4-22.5,16.1c-0.9,0.2-1.4,0.2-1.6-0.1c-0.1-0.1-0.2-0.4,0-0.6c0.1-0.2,0.2-0.3,0.3-0.5
					c7.2-8.5,12.7-21,14.3-24.6C68.8,10.9,68.9,10.6,69,10.5 M33.2,10.2c0.7-1.6,1.8-4.9,4.5-6.3c0.8-0.4,1.8-0.6,2.7-0.6
					c0.2,0,0.3,0,0.4,0c7.4,0,14.3,1,20.1,2.8c0.4,0.1,1.3,0.3,1.3,0.9c0,0.3-0.2,0.5-0.3,0.7c-0.1,0.1-0.2,0.2-0.4,0.3
					c-1.3,1.1-5.4,4.1-13.1,7c-2.7,1.1-6.1,2.3-9.6,3.1C36.8,18.4,29.2,19.6,33.2,10.2 M25.8,4.8c0.9-0.2,1.5-0.2,1.7,0.1
					c0.1,0.1,0.2,0.4,0,0.6c-0.1,0.2-0.2,0.3-0.4,0.5C20,14.4,14.5,27,12.9,30.6c-0.1,0.2-0.2,0.5-0.3,0.7c-0.2,0.3-0.4,0.5-0.7,0.5
					c-0.2,0-0.4,0-0.8-0.3c-4.8-2.9-7.7-6.6-7.7-10.6C3.3,13.6,12.6,7.5,25.8,4.8"/>
			</defs>
			<use xlink:href="#SVGID_100_"  style="overflow:visible;fill:#FFFFFF;"/>
			<clipPath id="SVGID_101_">
				<use xlink:href="#SVGID_100_"  style="overflow:visible;"/>
			</clipPath>
			<g class="st49">
				<g>
					<defs>
						<polyline id="SVGID_102_" points="25.1,1.9 33.4,1.9 33.4,6.1 25.1,6.1 25.1,1.9 						"/>
					</defs>
					<use xlink:href="#SVGID_102_"  style="overflow:visible;fill:#FFFFFF;"/>
					<clipPath id="SVGID_103_">
						<use xlink:href="#SVGID_102_"  style="overflow:visible;"/>
					</clipPath>
					<path class="st50" d="M33,1.9L33,1.9L33,1.9L33,1.9c-2.2,0.2-4.4,0.5-6.5,0.9l-1.4,2.1c0.2-0.1,0.5-0.1,0.7-0.2
						c0.4-0.1,0.8-0.1,1-0.1c0.2,0,0.4,0,0.5,0.1l0,0l0,0l0,0l0,0l0,0l0,0l0,0l0,0l0,0l0,0l0,0l0,0l0,0l0,0l0,0l0,0l0,0l0,0
						c0,0,0,0,0.1,0l0,0l0,0l0,0l0,0l0,0l0,0l0,0c0,0,0,0,0,0l0,0l0,0l0,0l0,0c0,0,0,0.1,0.1,0.1L33.3,2C33.3,1.9,33.2,1.9,33,1.9"
						/>
				</g>
				<g>
					<defs>
						<polyline id="SVGID_104_" points="25.1,1.9 33.4,1.9 33.4,6.1 25.1,6.1 25.1,1.9 						"/>
					</defs>
					<use xlink:href="#SVGID_104_"  style="overflow:visible;fill:#FFFFFF;"/>
					<clipPath id="SVGID_105_">
						<use xlink:href="#SVGID_104_"  style="overflow:visible;"/>
					</clipPath>
					<path class="st51" d="M31.4,5.1c-0.2,0.3-0.5,0.7-0.8,1l0,0C30.9,5.8,31.2,5.4,31.4,5.1 M33.3,2.3c-0.4,0.7-0.9,1.4-1.4,2
						C32.4,3.7,32.8,3,33.3,2.3"/>
				</g>
				<g>
					<defs>
						<polyline id="SVGID_106_" points="25.1,1.9 33.4,1.9 33.4,6.1 25.1,6.1 25.1,1.9 						"/>
					</defs>
					<use xlink:href="#SVGID_106_"  style="overflow:visible;fill:#FFFFFF;"/>
					<clipPath id="SVGID_107_">
						<use xlink:href="#SVGID_106_"  style="overflow:visible;"/>
					</clipPath>
					<path class="st52" d="M33.4,2L33.4,2l-5.7,2.9c0,0.1,0,0.1,0,0.2c0,0.1,0,0.2-0.1,0.3l0,0c-0.1,0.2-0.2,0.3-0.4,0.5l0,0l0,0
						l0,0l-0.1,0.2h3.6c0.2-0.3,0.5-0.7,0.8-1.1c0.2-0.2,0.3-0.5,0.5-0.7c0.5-0.7,0.9-1.3,1.4-2l0,0C33.3,2.2,33.4,2.2,33.4,2
						L33.4,2C33.4,2.1,33.4,2,33.4,2"/>
				</g>
			</g>
		</g>
		<g>
			<defs>
				<path id="SVGID_108_" d="M40.8,41.7c22.5,0,40.8-9.3,40.8-20.8C81.5,9.3,63.3,0,40.8,0C18.2,0,0,9.3,0,20.8
					C0,32.3,18.2,41.7,40.8,41.7 M48.4,31.5c-0.7,1.6-1.8,4.9-4.5,6.3c-0.8,0.4-1.8,0.6-2.7,0.6c-0.2,0-0.3,0-0.4,0
					c-7.4,0-14.3-1-20-2.7c-0.4-0.1-1.4-0.4-1.4-0.9c0-0.3,0.1-0.5,0.3-0.7c0.1-0.1,0.2-0.2,0.4-0.3c1.3-1.1,5.4-4.1,13.1-7
					c2.7-1,6-2.3,9.6-3C44.8,23.2,52.5,22.1,48.4,31.5 M69,10.5c0.1-0.3,0.3-0.5,0.7-0.5c0.2,0,0.4,0,0.8,0.3
					c4.8,2.9,7.6,6.6,7.6,10.6c0,7.2-9.2,13.4-22.5,16.1c-0.9,0.2-1.4,0.2-1.6-0.1c-0.1-0.1-0.2-0.4,0-0.6c0.1-0.2,0.2-0.3,0.3-0.5
					c7.2-8.5,12.7-21,14.3-24.6C68.8,10.9,68.9,10.6,69,10.5 M33.2,10.2c0.7-1.6,1.8-4.9,4.5-6.3c0.8-0.4,1.8-0.6,2.7-0.6
					c0.2,0,0.3,0,0.4,0c7.4,0,14.3,1,20.1,2.8c0.4,0.1,1.3,0.3,1.3,0.9c0,0.3-0.2,0.5-0.3,0.7c-0.1,0.1-0.2,0.2-0.4,0.3
					c-1.3,1.1-5.4,4.1-13.1,7c-2.7,1.1-6.1,2.3-9.6,3.1C36.8,18.4,29.2,19.6,33.2,10.2 M25.8,4.8c0.9-0.2,1.5-0.2,1.7,0.1
					c0.1,0.1,0.2,0.4,0,0.6c-0.1,0.2-0.2,0.3-0.4,0.5C20,14.4,14.5,27,12.9,30.6c-0.1,0.2-0.2,0.5-0.3,0.7c-0.2,0.3-0.4,0.5-0.7,0.5
					c-0.2,0-0.4,0-0.8-0.3c-4.8-2.9-7.7-6.6-7.7-10.6C3.3,13.6,12.6,7.5,25.8,4.8"/>
			</defs>
			<use xlink:href="#SVGID_108_"  style="overflow:visible;fill:#FFFFFF;"/>
			<clipPath id="SVGID_109_">
				<use xlink:href="#SVGID_108_"  style="overflow:visible;"/>
			</clipPath>
			<path class="st53" d="M40.8,0C18.2,0,0,9.3,0,20.8c0,11.5,18.2,20.8,40.8,20.8s40.8-9.3,40.8-20.8C81.5,9.3,63.3,0,40.8,0
				 M69,34.3c-7.5,3.8-17.5,6-28.2,6s-20.7-2.1-28.2-6C5.4,30.7,1.4,25.9,1.4,20.8s4-9.8,11.2-13.5c7.5-3.8,17.5-5.9,28.2-5.9
				S61.5,3.5,69,7.3c7.2,3.7,11.2,8.5,11.2,13.5S76.2,30.7,69,34.3"/>
		</g>
		<g>
			<defs>
				<path id="SVGID_110_" d="M40.8,41.7c22.5,0,40.8-9.3,40.8-20.8C81.5,9.3,63.3,0,40.8,0C18.2,0,0,9.3,0,20.8
					C0,32.3,18.2,41.7,40.8,41.7 M48.4,31.5c-0.7,1.6-1.8,4.9-4.5,6.3c-0.8,0.4-1.8,0.6-2.7,0.6c-0.2,0-0.3,0-0.4,0
					c-7.4,0-14.3-1-20-2.7c-0.4-0.1-1.4-0.4-1.4-0.9c0-0.3,0.1-0.5,0.3-0.7c0.1-0.1,0.2-0.2,0.4-0.3c1.3-1.1,5.4-4.1,13.1-7
					c2.7-1,6-2.3,9.6-3C44.8,23.2,52.5,22.1,48.4,31.5 M69,10.5c0.1-0.3,0.3-0.5,0.7-0.5c0.2,0,0.4,0,0.8,0.3
					c4.8,2.9,7.6,6.6,7.6,10.6c0,7.2-9.2,13.4-22.5,16.1c-0.9,0.2-1.4,0.2-1.6-0.1c-0.1-0.1-0.2-0.4,0-0.6c0.1-0.2,0.2-0.3,0.3-0.5
					c7.2-8.5,12.7-21,14.3-24.6C68.8,10.9,68.9,10.6,69,10.5 M33.2,10.2c0.7-1.6,1.8-4.9,4.5-6.3c0.8-0.4,1.8-0.6,2.7-0.6
					c0.2,0,0.3,0,0.4,0c7.4,0,14.3,1,20.1,2.8c0.4,0.1,1.3,0.3,1.3,0.9c0,0.3-0.2,0.5-0.3,0.7c-0.1,0.1-0.2,0.2-0.4,0.3
					c-1.3,1.1-5.4,4.1-13.1,7c-2.7,1.1-6.1,2.3-9.6,3.1C36.8,18.4,29.2,19.6,33.2,10.2 M25.8,4.8c0.9-0.2,1.5-0.2,1.7,0.1
					c0.1,0.1,0.2,0.4,0,0.6c-0.1,0.2-0.2,0.3-0.4,0.5C20,14.4,14.5,27,12.9,30.6c-0.1,0.2-0.2,0.5-0.3,0.7c-0.2,0.3-0.4,0.5-0.7,0.5
					c-0.2,0-0.4,0-0.8-0.3c-4.8-2.9-7.7-6.6-7.7-10.6C3.3,13.6,12.6,7.5,25.8,4.8"/>
			</defs>
			<use xlink:href="#SVGID_110_"  style="overflow:visible;fill:#FFFFFF;"/>
			<clipPath id="SVGID_111_">
				<use xlink:href="#SVGID_110_"  style="overflow:visible;"/>
			</clipPath>
			<path class="st54" d="M42.1,17.2L42.1,17.2L42,20.1c-0.7,0.2-1.3,0.4-1.9,0.5c-3.3,0.9-5.6,1.2-7.1,1.2h-0.1
				c-1,0-1.7-0.1-2.2-0.2l0,0l0,0l0,0c0.5,0.1,1.2,0.2,2.2,0.2c1.5,0,3.8-0.3,7.2-1.2c0.6-0.2,1.2-0.3,1.9-0.5L42.1,17.2"/>
		</g>
		<g>
			<defs>
				<path id="SVGID_112_" d="M40.8,41.7c22.5,0,40.8-9.3,40.8-20.8C81.5,9.3,63.3,0,40.8,0C18.2,0,0,9.3,0,20.8
					C0,32.3,18.2,41.7,40.8,41.7 M48.4,31.5c-0.7,1.6-1.8,4.9-4.5,6.3c-0.8,0.4-1.8,0.6-2.7,0.6c-0.2,0-0.3,0-0.4,0
					c-7.4,0-14.3-1-20-2.7c-0.4-0.1-1.4-0.4-1.4-0.9c0-0.3,0.1-0.5,0.3-0.7c0.1-0.1,0.2-0.2,0.4-0.3c1.3-1.1,5.4-4.1,13.1-7
					c2.7-1,6-2.3,9.6-3C44.8,23.2,52.5,22.1,48.4,31.5 M69,10.5c0.1-0.3,0.3-0.5,0.7-0.5c0.2,0,0.4,0,0.8,0.3
					c4.8,2.9,7.6,6.6,7.6,10.6c0,7.2-9.2,13.4-22.5,16.1c-0.9,0.2-1.4,0.2-1.6-0.1c-0.1-0.1-0.2-0.4,0-0.6c0.1-0.2,0.2-0.3,0.3-0.5
					c7.2-8.5,12.7-21,14.3-24.6C68.8,10.9,68.9,10.6,69,10.5 M33.2,10.2c0.7-1.6,1.8-4.9,4.5-6.3c0.8-0.4,1.8-0.6,2.7-0.6
					c0.2,0,0.3,0,0.4,0c7.4,0,14.3,1,20.1,2.8c0.4,0.1,1.3,0.3,1.3,0.9c0,0.3-0.2,0.5-0.3,0.7c-0.1,0.1-0.2,0.2-0.4,0.3
					c-1.3,1.1-5.4,4.1-13.1,7c-2.7,1.1-6.1,2.3-9.6,3.1C36.8,18.4,29.2,19.6,33.2,10.2 M25.8,4.8c0.9-0.2,1.5-0.2,1.7,0.1
					c0.1,0.1,0.2,0.4,0,0.6c-0.1,0.2-0.2,0.3-0.4,0.5C20,14.4,14.5,27,12.9,30.6c-0.1,0.2-0.2,0.5-0.3,0.7c-0.2,0.3-0.4,0.5-0.7,0.5
					c-0.2,0-0.4,0-0.8-0.3c-4.8-2.9-7.7-6.6-7.7-10.6C3.3,13.6,12.6,7.5,25.8,4.8"/>
			</defs>
			<use xlink:href="#SVGID_112_"  style="overflow:visible;fill:#FFFFFF;"/>
			<clipPath id="SVGID_113_">
				<use xlink:href="#SVGID_112_"  style="overflow:visible;"/>
			</clipPath>
			<g class="st55">
				<g>
					<defs>
						<polyline id="SVGID_114_" points="27.6,13.7 42.1,13.7 42.1,21.8 27.6,21.8 27.6,13.7 						"/>
					</defs>
					<use xlink:href="#SVGID_114_"  style="overflow:visible;fill:#FFFFFF;"/>
					<clipPath id="SVGID_115_">
						<use xlink:href="#SVGID_114_"  style="overflow:visible;"/>
					</clipPath>
					<path class="st56" d="M33.5,17.6L33.5,17.6L33.5,17.6 M32.1,13.7L32.1,13.7c-0.1,0.6-0.1,1.2,0,1.7c0-0.2,0-0.4,0-0.6
						C32,14.4,32.1,14,32.1,13.7"/>
				</g>
				<g>
					<defs>
						<polyline id="SVGID_116_" points="27.6,13.7 42.1,13.7 42.1,21.8 27.6,21.8 27.6,13.7 						"/>
					</defs>
					<use xlink:href="#SVGID_116_"  style="overflow:visible;fill:#FFFFFF;"/>
					<clipPath id="SVGID_117_">
						<use xlink:href="#SVGID_116_"  style="overflow:visible;"/>
					</clipPath>
					<path class="st57" d="M32.1,13.7l-4.2,1.5c-0.1,0.5-0.2,1-0.3,1.6l0,0c0,0.3,0,0.5,0,0.8c0,1.7,0.6,3.2,2.6,3.8
						c0.1,0,0.3,0.1,0.5,0.1c-0.2,0-0.3-0.1-0.5-0.1l3.5-3.7c-0.1,0-0.2-0.1-0.3-0.2l0,0c0,0,0,0-0.1,0l0,0l0,0
						c-0.4-0.2-0.7-0.5-0.9-1c-0.2-0.4-0.3-0.8-0.4-1.3l0,0C32,14.9,32,14.3,32.1,13.7"/>
				</g>
				<g>
					<defs>
						<polyline id="SVGID_118_" points="27.6,13.7 42.1,13.7 42.1,21.8 27.6,21.8 27.6,13.7 						"/>
					</defs>
					<use xlink:href="#SVGID_118_"  style="overflow:visible;fill:#FFFFFF;"/>
					<clipPath id="SVGID_119_">
						<use xlink:href="#SVGID_118_"  style="overflow:visible;"/>
					</clipPath>
					<path class="st58" d="M42.1,17.2c-0.8,0.2-1.5,0.4-2.3,0.6c-0.1,0-0.2,0-0.2,0c-0.2,0-0.4,0.1-0.7,0.1
						c-0.6,0.1-1.5,0.3-2.6,0.3c-0.9,0-1.8-0.1-2.6-0.5l-3.5,3.7c0.1,0,0.3,0.1,0.5,0.1l0,0c0.5,0.1,1.2,0.2,2.2,0.2H33
						c1.5,0,3.8-0.3,7.1-1.2c0.6-0.2,1.2-0.3,1.9-0.5L42.1,17.2"/>
				</g>
			</g>
		</g>
		<g>
			<defs>
				<path id="SVGID_120_" d="M40.8,41.7c22.5,0,40.8-9.3,40.8-20.8C81.5,9.3,63.3,0,40.8,0C18.2,0,0,9.3,0,20.8
					C0,32.3,18.2,41.7,40.8,41.7 M48.4,31.5c-0.7,1.6-1.8,4.9-4.5,6.3c-0.8,0.4-1.8,0.6-2.7,0.6c-0.2,0-0.3,0-0.4,0
					c-7.4,0-14.3-1-20-2.7c-0.4-0.1-1.4-0.4-1.4-0.9c0-0.3,0.1-0.5,0.3-0.7c0.1-0.1,0.2-0.2,0.4-0.3c1.3-1.1,5.4-4.1,13.1-7
					c2.7-1,6-2.3,9.6-3C44.8,23.2,52.5,22.1,48.4,31.5 M69,10.5c0.1-0.3,0.3-0.5,0.7-0.5c0.2,0,0.4,0,0.8,0.3
					c4.8,2.9,7.6,6.6,7.6,10.6c0,7.2-9.2,13.4-22.5,16.1c-0.9,0.2-1.4,0.2-1.6-0.1c-0.1-0.1-0.2-0.4,0-0.6c0.1-0.2,0.2-0.3,0.3-0.5
					c7.2-8.5,12.7-21,14.3-24.6C68.8,10.9,68.9,10.6,69,10.5 M33.2,10.2c0.7-1.6,1.8-4.9,4.5-6.3c0.8-0.4,1.8-0.6,2.7-0.6
					c0.2,0,0.3,0,0.4,0c7.4,0,14.3,1,20.1,2.8c0.4,0.1,1.3,0.3,1.3,0.9c0,0.3-0.2,0.5-0.3,0.7c-0.1,0.1-0.2,0.2-0.4,0.3
					c-1.3,1.1-5.4,4.1-13.1,7c-2.7,1.1-6.1,2.3-9.6,3.1C36.8,18.4,29.2,19.6,33.2,10.2 M25.8,4.8c0.9-0.2,1.5-0.2,1.7,0.1
					c0.1,0.1,0.2,0.4,0,0.6c-0.1,0.2-0.2,0.3-0.4,0.5C20,14.4,14.5,27,12.9,30.6c-0.1,0.2-0.2,0.5-0.3,0.7c-0.2,0.3-0.4,0.5-0.7,0.5
					c-0.2,0-0.4,0-0.8-0.3c-4.8-2.9-7.7-6.6-7.7-10.6C3.3,13.6,12.6,7.5,25.8,4.8"/>
			</defs>
			<use xlink:href="#SVGID_120_"  style="overflow:visible;fill:#FFFFFF;"/>
			<clipPath id="SVGID_121_">
				<use xlink:href="#SVGID_120_"  style="overflow:visible;"/>
			</clipPath>
			<g class="st59">
				<g>
					<defs>
						<polyline id="SVGID_122_" points="36.5,19.9 54,19.9 54,29.9 36.5,29.9 36.5,19.9 						"/>
					</defs>
					<use xlink:href="#SVGID_122_"  style="overflow:visible;fill:#FFFFFF;"/>
					<clipPath id="SVGID_123_">
						<use xlink:href="#SVGID_122_"  style="overflow:visible;"/>
					</clipPath>
					<path class="st60" d="M38.2,24.9c-0.5,0.2-1,0.3-1.4,0.5l0,0C37.2,25.2,37.7,25,38.2,24.9 M45.3,23.4
						C45.3,23.4,45.3,23.4,45.3,23.4c0.9,0,1.9,0.1,2.7,0.6l0,0C47.2,23.5,46.2,23.4,45.3,23.4"/>
				</g>
				<g>
					<defs>
						<polyline id="SVGID_124_" points="36.5,19.9 54,19.9 54,29.9 36.5,29.9 36.5,19.9 						"/>
					</defs>
					<use xlink:href="#SVGID_124_"  style="overflow:visible;fill:#FFFFFF;"/>
					<clipPath id="SVGID_125_">
						<use xlink:href="#SVGID_124_"  style="overflow:visible;"/>
					</clipPath>
					<path class="st61" d="M49.4,25.6L49.4,25.6c0.1,0.4,0.2,0.8,0.2,1.3c0,0.8-0.2,1.8-0.6,3l0,0C49.7,28,49.7,26.6,49.4,25.6"/>
				</g>
				<g>
					<defs>
						<polyline id="SVGID_126_" points="36.5,19.9 54,19.9 54,29.9 36.5,29.9 36.5,19.9 						"/>
					</defs>
					<use xlink:href="#SVGID_126_"  style="overflow:visible;fill:#FFFFFF;"/>
					<clipPath id="SVGID_127_">
						<use xlink:href="#SVGID_126_"  style="overflow:visible;"/>
					</clipPath>
					<path class="st62" d="M50.9,20.1c0.2,0,0.3,0.1,0.5,0.1c1.9,0.6,2.5,2,2.6,3.7l0,0c0-1.7-0.7-3.1-2.6-3.7
						C51.2,20.2,51.1,20.2,50.9,20.1"/>
				</g>
				<g>
					<defs>
						<polyline id="SVGID_128_" points="36.5,19.9 54,19.9 54,29.9 36.5,29.9 36.5,19.9 						"/>
					</defs>
					<use xlink:href="#SVGID_128_"  style="overflow:visible;fill:#FFFFFF;"/>
					<clipPath id="SVGID_129_">
						<use xlink:href="#SVGID_128_"  style="overflow:visible;"/>
					</clipPath>
					<path class="st63" d="M48.6,19.9c-2.2,0-5.8,0.5-12.2,2.7l0.3,2.8c0.5-0.2,0.9-0.3,1.4-0.5c1.5-0.5,3-0.9,4.5-1.2
						c0.6-0.1,1.5-0.3,2.6-0.3l0,0l0,0c0.9,0,1.9,0.1,2.7,0.6l4.4-3.2c0.7,0.4,1.1,1,1.3,1.7l0,0l-4.3,3.2c0.3,1,0.3,2.4-0.4,4.3
						l3.8-0.8c0.5-1.2,0.9-2.8,1.1-4.3c0-0.3,0-0.5,0-0.8c0,0,0-0.1,0-0.1c0-1.7-0.7-3.1-2.6-3.7c-0.1,0-0.3-0.1-0.5-0.1
						C50.4,20,49.7,19.9,48.6,19.9"/>
				</g>
			</g>
		</g>
		<g>
			<defs>
				<path id="SVGID_130_" d="M40.8,41.7c22.5,0,40.8-9.3,40.8-20.8C81.5,9.3,63.3,0,40.8,0C18.2,0,0,9.3,0,20.8
					C0,32.3,18.2,41.7,40.8,41.7 M48.4,31.5c-0.7,1.6-1.8,4.9-4.5,6.3c-0.8,0.4-1.8,0.6-2.7,0.6c-0.2,0-0.3,0-0.4,0
					c-7.4,0-14.3-1-20-2.7c-0.4-0.1-1.4-0.4-1.4-0.9c0-0.3,0.1-0.5,0.3-0.7c0.1-0.1,0.2-0.2,0.4-0.3c1.3-1.1,5.4-4.1,13.1-7
					c2.7-1,6-2.3,9.6-3C44.8,23.2,52.5,22.1,48.4,31.5 M69,10.5c0.1-0.3,0.3-0.5,0.7-0.5c0.2,0,0.4,0,0.8,0.3
					c4.8,2.9,7.6,6.6,7.6,10.6c0,7.2-9.2,13.4-22.5,16.1c-0.9,0.2-1.4,0.2-1.6-0.1c-0.1-0.1-0.2-0.4,0-0.6c0.1-0.2,0.2-0.3,0.3-0.5
					c7.2-8.5,12.7-21,14.3-24.6C68.8,10.9,68.9,10.6,69,10.5 M33.2,10.2c0.7-1.6,1.8-4.9,4.5-6.3c0.8-0.4,1.8-0.6,2.7-0.6
					c0.2,0,0.3,0,0.4,0c7.4,0,14.3,1,20.1,2.8c0.4,0.1,1.3,0.3,1.3,0.9c0,0.3-0.2,0.5-0.3,0.7c-0.1,0.1-0.2,0.2-0.4,0.3
					c-1.3,1.1-5.4,4.1-13.1,7c-2.7,1.1-6.1,2.3-9.6,3.1C36.8,18.4,29.2,19.6,33.2,10.2 M25.8,4.8c0.9-0.2,1.5-0.2,1.7,0.1
					c0.1,0.1,0.2,0.4,0,0.6c-0.1,0.2-0.2,0.3-0.4,0.5C20,14.4,14.5,27,12.9,30.6c-0.1,0.2-0.2,0.5-0.3,0.7c-0.2,0.3-0.4,0.5-0.7,0.5
					c-0.2,0-0.4,0-0.8-0.3c-4.8-2.9-7.7-6.6-7.7-10.6C3.3,13.6,12.6,7.5,25.8,4.8"/>
			</defs>
			<use xlink:href="#SVGID_130_"  style="overflow:visible;fill:#FFFFFF;"/>
			<clipPath id="SVGID_131_">
				<use xlink:href="#SVGID_130_"  style="overflow:visible;"/>
			</clipPath>
			<g class="st64">
				<g>
					<defs>
						<polyline id="SVGID_132_" points="48,20.7 53.7,20.7 53.7,25.6 48,25.6 48,20.7 						"/>
					</defs>
					<use xlink:href="#SVGID_132_"  style="overflow:visible;fill:#FFFFFF;"/>
					<clipPath id="SVGID_133_">
						<use xlink:href="#SVGID_132_"  style="overflow:visible;"/>
					</clipPath>
					<g class="st65">
						<g>
							<defs>
								<path id="SVGID_134_" d="M48,23.9L48,23.9c0.6,0.4,1.2,0.9,1.4,1.7l0,0C49.1,24.8,48.6,24.3,48,23.9"/>
							</defs>
							<use xlink:href="#SVGID_134_"  style="overflow:visible;fill:#FFFFFF;"/>
							<clipPath id="SVGID_135_">
								<use xlink:href="#SVGID_134_"  style="overflow:visible;"/>
							</clipPath>
							<g transform="matrix(1 0 0 1 3.814697e-06 0)" class="st66">
								
									<image style="overflow:visible;enable-background:new    ;" width="11" height="11" xlink:href="A1E3C3B3.jpeg"  transform="matrix(0.2324 0 0 -0.2324 47.5535 26.1299)">
								</image>
							</g>
						</g>
					</g>
				</g>
				<g>
					<defs>
						<polyline id="SVGID_136_" points="48,20.7 53.7,20.7 53.7,25.6 48,25.6 48,20.7 						"/>
					</defs>
					<use xlink:href="#SVGID_136_"  style="overflow:visible;fill:#FFFFFF;"/>
					<clipPath id="SVGID_137_">
						<use xlink:href="#SVGID_136_"  style="overflow:visible;"/>
					</clipPath>
					<g class="st67">
						<g>
							<defs>
								<path id="SVGID_138_" d="M52.4,20.7L48,23.9c0.6,0.4,1.2,0.9,1.4,1.7l4.3-3.2C53.5,21.7,53,21.1,52.4,20.7"/>
							</defs>
							<use xlink:href="#SVGID_138_"  style="overflow:visible;fill:#FFFFFF;"/>
							<clipPath id="SVGID_139_">
								<use xlink:href="#SVGID_138_"  style="overflow:visible;"/>
							</clipPath>
							<g transform="matrix(1 0 0 1 3.814697e-06 0)" class="st68">
								
									<image style="overflow:visible;enable-background:new    ;" width="22" height="19" xlink:href="A1E3C3B1.jpeg"  transform="matrix(0.2988 0 0 -0.2988 47.5535 26.0469)">
								</image>
							</g>
						</g>
					</g>
				</g>
			</g>
		</g>
		<g>
			<defs>
				<path id="SVGID_140_" d="M40.8,41.7c22.5,0,40.8-9.3,40.8-20.8C81.5,9.3,63.3,0,40.8,0C18.2,0,0,9.3,0,20.8
					C0,32.3,18.2,41.7,40.8,41.7 M48.4,31.5c-0.7,1.6-1.8,4.9-4.5,6.3c-0.8,0.4-1.8,0.6-2.7,0.6c-0.2,0-0.3,0-0.4,0
					c-7.4,0-14.3-1-20-2.7c-0.4-0.1-1.4-0.4-1.4-0.9c0-0.3,0.1-0.5,0.3-0.7c0.1-0.1,0.2-0.2,0.4-0.3c1.3-1.1,5.4-4.1,13.1-7
					c2.7-1,6-2.3,9.6-3C44.8,23.2,52.5,22.1,48.4,31.5 M69,10.5c0.1-0.3,0.3-0.5,0.7-0.5c0.2,0,0.4,0,0.8,0.3
					c4.8,2.9,7.6,6.6,7.6,10.6c0,7.2-9.2,13.4-22.5,16.1c-0.9,0.2-1.4,0.2-1.6-0.1c-0.1-0.1-0.2-0.4,0-0.6c0.1-0.2,0.2-0.3,0.3-0.5
					c7.2-8.5,12.7-21,14.3-24.6C68.8,10.9,68.9,10.6,69,10.5 M33.2,10.2c0.7-1.6,1.8-4.9,4.5-6.3c0.8-0.4,1.8-0.6,2.7-0.6
					c0.2,0,0.3,0,0.4,0c7.4,0,14.3,1,20.1,2.8c0.4,0.1,1.3,0.3,1.3,0.9c0,0.3-0.2,0.5-0.3,0.7c-0.1,0.1-0.2,0.2-0.4,0.3
					c-1.3,1.1-5.4,4.1-13.1,7c-2.7,1.1-6.1,2.3-9.6,3.1C36.8,18.4,29.2,19.6,33.2,10.2 M25.8,4.8c0.9-0.2,1.5-0.2,1.7,0.1
					c0.1,0.1,0.2,0.4,0,0.6c-0.1,0.2-0.2,0.3-0.4,0.5C20,14.4,14.5,27,12.9,30.6c-0.1,0.2-0.2,0.5-0.3,0.7c-0.2,0.3-0.4,0.5-0.7,0.5
					c-0.2,0-0.4,0-0.8-0.3c-4.8-2.9-7.7-6.6-7.7-10.6C3.3,13.6,12.6,7.5,25.8,4.8"/>
			</defs>
			<use xlink:href="#SVGID_140_"  style="overflow:visible;fill:#FFFFFF;"/>
			<clipPath id="SVGID_141_">
				<use xlink:href="#SVGID_140_"  style="overflow:visible;"/>
			</clipPath>
			<path class="st69" d="M48.2,39.7L48.2,39.7c0.1,0.1,0.2,0.1,0.3,0.1c0,0,0,0,0,0l0,0l0,0l0,0l0,0h0
				C48.4,39.8,48.3,39.8,48.2,39.7"/>
		</g>
		<g>
			<defs>
				<path id="SVGID_142_" d="M40.8,41.7c22.5,0,40.8-9.3,40.8-20.8C81.5,9.3,63.3,0,40.8,0C18.2,0,0,9.3,0,20.8
					C0,32.3,18.2,41.7,40.8,41.7 M48.4,31.5c-0.7,1.6-1.8,4.9-4.5,6.3c-0.8,0.4-1.8,0.6-2.7,0.6c-0.2,0-0.3,0-0.4,0
					c-7.4,0-14.3-1-20-2.7c-0.4-0.1-1.4-0.4-1.4-0.9c0-0.3,0.1-0.5,0.3-0.7c0.1-0.1,0.2-0.2,0.4-0.3c1.3-1.1,5.4-4.1,13.1-7
					c2.7-1,6-2.3,9.6-3C44.8,23.2,52.5,22.1,48.4,31.5 M69,10.5c0.1-0.3,0.3-0.5,0.7-0.5c0.2,0,0.4,0,0.8,0.3
					c4.8,2.9,7.6,6.6,7.6,10.6c0,7.2-9.2,13.4-22.5,16.1c-0.9,0.2-1.4,0.2-1.6-0.1c-0.1-0.1-0.2-0.4,0-0.6c0.1-0.2,0.2-0.3,0.3-0.5
					c7.2-8.5,12.7-21,14.3-24.6C68.8,10.9,68.9,10.6,69,10.5 M33.2,10.2c0.7-1.6,1.8-4.9,4.5-6.3c0.8-0.4,1.8-0.6,2.7-0.6
					c0.2,0,0.3,0,0.4,0c7.4,0,14.3,1,20.1,2.8c0.4,0.1,1.3,0.3,1.3,0.9c0,0.3-0.2,0.5-0.3,0.7c-0.1,0.1-0.2,0.2-0.4,0.3
					c-1.3,1.1-5.4,4.1-13.1,7c-2.7,1.1-6.1,2.3-9.6,3.1C36.8,18.4,29.2,19.6,33.2,10.2 M25.8,4.8c0.9-0.2,1.5-0.2,1.7,0.1
					c0.1,0.1,0.2,0.4,0,0.6c-0.1,0.2-0.2,0.3-0.4,0.5C20,14.4,14.5,27,12.9,30.6c-0.1,0.2-0.2,0.5-0.3,0.7c-0.2,0.3-0.4,0.5-0.7,0.5
					c-0.2,0-0.4,0-0.8-0.3c-4.8-2.9-7.7-6.6-7.7-10.6C3.3,13.6,12.6,7.5,25.8,4.8"/>
			</defs>
			<use xlink:href="#SVGID_142_"  style="overflow:visible;fill:#FFFFFF;"/>
			<clipPath id="SVGID_143_">
				<use xlink:href="#SVGID_142_"  style="overflow:visible;"/>
			</clipPath>
			<g class="st70">
				<g>
					<defs>
						<polyline id="SVGID_144_" points="48.2,34.3 56.4,34.3 56.4,39.8 48.2,39.8 48.2,34.3 						"/>
					</defs>
					<use xlink:href="#SVGID_144_"  style="overflow:visible;fill:#FFFFFF;"/>
					<clipPath id="SVGID_145_">
						<use xlink:href="#SVGID_144_"  style="overflow:visible;"/>
					</clipPath>
					<g class="st71">
						<g>
							<defs>
								<path id="SVGID_146_" d="M51.8,34.3c-0.8,1.2-1.7,2.4-2.5,3.6C50.1,36.7,50.9,35.5,51.8,34.3L51.8,34.3"/>
							</defs>
							<use xlink:href="#SVGID_146_"  style="overflow:visible;fill:#FFFFFF;"/>
							<clipPath id="SVGID_147_">
								<use xlink:href="#SVGID_146_"  style="overflow:visible;"/>
							</clipPath>
							<g class="st72">
								
									<image style="overflow:visible;enable-background:new    ;" width="14" height="16" xlink:href="A1E3C3B7.jpeg"  transform="matrix(0.2609 0 0 -0.2609 48.6491 38.077)">
								</image>
							</g>
						</g>
					</g>
				</g>
				<g>
					<defs>
						<polyline id="SVGID_148_" points="48.2,34.3 56.4,34.3 56.4,39.8 48.2,39.8 48.2,34.3 						"/>
					</defs>
					<use xlink:href="#SVGID_148_"  style="overflow:visible;fill:#FFFFFF;"/>
					<clipPath id="SVGID_149_">
						<use xlink:href="#SVGID_148_"  style="overflow:visible;"/>
					</clipPath>
					<path class="st73" d="M51.8,34.3c-0.8,1.2-1.7,2.4-2.5,3.6c-0.3,0.5-0.7,1-1,1.5l0,0c-0.1,0.1-0.1,0.2-0.1,0.2c0,0,0,0.1,0,0.1
						l0,0l5.8-2.9c0,0,0,0,0,0c0-0.1,0-0.1,0-0.2c0-0.1,0-0.2,0.1-0.3l0,0c0,0,0,0,0,0c0.1-0.2,0.2-0.3,0.3-0.5
						c0.1-0.1,0.2-0.2,0.3-0.4c0.2-0.2,0.3-0.4,0.5-0.6L51.8,34.3"/>
				</g>
				<g>
					<defs>
						<polyline id="SVGID_150_" points="48.2,34.3 56.4,34.3 56.4,39.8 48.2,39.8 48.2,34.3 						"/>
					</defs>
					<use xlink:href="#SVGID_150_"  style="overflow:visible;fill:#FFFFFF;"/>
					<clipPath id="SVGID_151_">
						<use xlink:href="#SVGID_150_"  style="overflow:visible;"/>
					</clipPath>
					<g class="st74">
						<g>
							<defs>
								<path id="SVGID_152_" d="M49,39.7c-0.2,0-0.3,0-0.5,0C48.7,39.8,48.9,39.8,49,39.7"/>
							</defs>
							<use xlink:href="#SVGID_152_"  style="overflow:visible;fill:#FFFFFF;"/>
							<clipPath id="SVGID_153_">
								<use xlink:href="#SVGID_152_"  style="overflow:visible;"/>
							</clipPath>
							<g class="st75">
								
									<image style="overflow:visible;enable-background:new    ;" width="8" height="5" xlink:href="A1E3C3B1.jpeg"  transform="matrix(0.2191 0 0 -0.2191 47.9552 40.1901)">
								</image>
							</g>
						</g>
					</g>
				</g>
				<g>
					<defs>
						<polyline id="SVGID_154_" points="48.2,34.3 56.4,34.3 56.4,39.8 48.2,39.8 48.2,34.3 						"/>
					</defs>
					<use xlink:href="#SVGID_154_"  style="overflow:visible;fill:#FFFFFF;"/>
					<clipPath id="SVGID_155_">
						<use xlink:href="#SVGID_154_"  style="overflow:visible;"/>
					</clipPath>
					<path class="st76" d="M56.4,36.8c-0.2,0-0.5,0.1-0.7,0.2C55.3,37,55,37,54.7,37c-0.3,0-0.5-0.1-0.6-0.2c0,0,0,0,0,0l0,0
						l-5.8,2.9c0.1,0,0.2,0.1,0.3,0.1h0l0,0l0,0c0.2,0,0.3,0,0.5,0c2.5-0.3,5-0.7,7.3-1.2L56.4,36.8"/>
				</g>
			</g>
		</g>
		<g>
			<defs>
				<path id="SVGID_156_" d="M40.8,41.7c22.5,0,40.8-9.3,40.8-20.8C81.5,9.3,63.3,0,40.8,0C18.2,0,0,9.3,0,20.8
					C0,32.3,18.2,41.7,40.8,41.7 M48.4,31.5c-0.7,1.6-1.8,4.9-4.5,6.3c-0.8,0.4-1.8,0.6-2.7,0.6c-0.2,0-0.3,0-0.4,0
					c-7.4,0-14.3-1-20-2.7c-0.4-0.1-1.4-0.4-1.4-0.9c0-0.3,0.1-0.5,0.3-0.7c0.1-0.1,0.2-0.2,0.4-0.3c1.3-1.1,5.4-4.1,13.1-7
					c2.7-1,6-2.3,9.6-3C44.8,23.2,52.5,22.1,48.4,31.5 M69,10.5c0.1-0.3,0.3-0.5,0.7-0.5c0.2,0,0.4,0,0.8,0.3
					c4.8,2.9,7.6,6.6,7.6,10.6c0,7.2-9.2,13.4-22.5,16.1c-0.9,0.2-1.4,0.2-1.6-0.1c-0.1-0.1-0.2-0.4,0-0.6c0.1-0.2,0.2-0.3,0.3-0.5
					c7.2-8.5,12.7-21,14.3-24.6C68.8,10.9,68.9,10.6,69,10.5 M33.2,10.2c0.7-1.6,1.8-4.9,4.5-6.3c0.8-0.4,1.8-0.6,2.7-0.6
					c0.2,0,0.3,0,0.4,0c7.4,0,14.3,1,20.1,2.8c0.4,0.1,1.3,0.3,1.3,0.9c0,0.3-0.2,0.5-0.3,0.7c-0.1,0.1-0.2,0.2-0.4,0.3
					c-1.3,1.1-5.4,4.1-13.1,7c-2.7,1.1-6.1,2.3-9.6,3.1C36.8,18.4,29.2,19.6,33.2,10.2 M25.8,4.8c0.9-0.2,1.5-0.2,1.7,0.1
					c0.1,0.1,0.2,0.4,0,0.6c-0.1,0.2-0.2,0.3-0.4,0.5C20,14.4,14.5,27,12.9,30.6c-0.1,0.2-0.2,0.5-0.3,0.7c-0.2,0.3-0.4,0.5-0.7,0.5
					c-0.2,0-0.4,0-0.8-0.3c-4.8-2.9-7.7-6.6-7.7-10.6C3.3,13.6,12.6,7.5,25.8,4.8"/>
			</defs>
			<use xlink:href="#SVGID_156_"  style="overflow:visible;fill:#FFFFFF;"/>
			<clipPath id="SVGID_157_">
				<use xlink:href="#SVGID_156_"  style="overflow:visible;"/>
			</clipPath>
			<path class="st77" d="M25.8,4.8C12.6,7.5,3.3,13.6,3.3,20.8c0,4,3,7.6,7.7,10.6c0.4,0.2,0.7,0.3,0.8,0.3c0.4,0,0.5-0.2,0.7-0.5
				c0.1-0.2,0.2-0.4,0.3-0.7C14.5,27,20,14.4,27.2,6c0.2-0.2,0.3-0.3,0.4-0.5c0.2-0.3,0.1-0.5,0-0.6C27.4,4.6,26.7,4.6,25.8,4.8z"/>
		</g>
		<g>
			<defs>
				<path id="SVGID_158_" d="M40.8,41.7c22.5,0,40.8-9.3,40.8-20.8C81.5,9.3,63.3,0,40.8,0C18.2,0,0,9.3,0,20.8
					C0,32.3,18.2,41.7,40.8,41.7 M48.4,31.5c-0.7,1.6-1.8,4.9-4.5,6.3c-0.8,0.4-1.8,0.6-2.7,0.6c-0.2,0-0.3,0-0.4,0
					c-7.4,0-14.3-1-20-2.7c-0.4-0.1-1.4-0.4-1.4-0.9c0-0.3,0.1-0.5,0.3-0.7c0.1-0.1,0.2-0.2,0.4-0.3c1.3-1.1,5.4-4.1,13.1-7
					c2.7-1,6-2.3,9.6-3C44.8,23.2,52.5,22.1,48.4,31.5 M69,10.5c0.1-0.3,0.3-0.5,0.7-0.5c0.2,0,0.4,0,0.8,0.3
					c4.8,2.9,7.6,6.6,7.6,10.6c0,7.2-9.2,13.4-22.5,16.1c-0.9,0.2-1.4,0.2-1.6-0.1c-0.1-0.1-0.2-0.4,0-0.6c0.1-0.2,0.2-0.3,0.3-0.5
					c7.2-8.5,12.7-21,14.3-24.6C68.8,10.9,68.9,10.6,69,10.5 M33.2,10.2c0.7-1.6,1.8-4.9,4.5-6.3c0.8-0.4,1.8-0.6,2.7-0.6
					c0.2,0,0.3,0,0.4,0c7.4,0,14.3,1,20.1,2.8c0.4,0.1,1.3,0.3,1.3,0.9c0,0.3-0.2,0.5-0.3,0.7c-0.1,0.1-0.2,0.2-0.4,0.3
					c-1.3,1.1-5.4,4.1-13.1,7c-2.7,1.1-6.1,2.3-9.6,3.1C36.8,18.4,29.2,19.6,33.2,10.2 M25.8,4.8c0.9-0.2,1.5-0.2,1.7,0.1
					c0.1,0.1,0.2,0.4,0,0.6c-0.1,0.2-0.2,0.3-0.4,0.5C20,14.4,14.5,27,12.9,30.6c-0.1,0.2-0.2,0.5-0.3,0.7c-0.2,0.3-0.4,0.5-0.7,0.5
					c-0.2,0-0.4,0-0.8-0.3c-4.8-2.9-7.7-6.6-7.7-10.6C3.3,13.6,12.6,7.5,25.8,4.8"/>
			</defs>
			<use xlink:href="#SVGID_158_"  style="overflow:visible;fill:#FFFFFF;"/>
			<clipPath id="SVGID_159_">
				<use xlink:href="#SVGID_158_"  style="overflow:visible;"/>
			</clipPath>
			<path class="st78" d="M61.5,6.2l-0.2-0.1c-5.9-1.8-12.9-2.8-20.4-2.8c-0.1,0-0.2,0-0.4,0c-0.9,0-1.9,0.2-2.7,0.6
				c-2.7,1.3-3.9,4.7-4.5,6.3c-4,9.4,3.6,8.2,5.7,7.8c3.5-0.8,6.9-2,9.6-3.1c7.7-2.9,11.7-5.9,13.1-7c0.2-0.1,0.3-0.2,0.4-0.3
				c0.2-0.2,0.3-0.4,0.3-0.7C62.3,6.6,62,6.4,61.5,6.2z"/>
		</g>
		<g>
			<defs>
				<path id="SVGID_160_" d="M40.8,41.7c22.5,0,40.8-9.3,40.8-20.8C81.5,9.3,63.3,0,40.8,0C18.2,0,0,9.3,0,20.8
					C0,32.3,18.2,41.7,40.8,41.7 M48.4,31.5c-0.7,1.6-1.8,4.9-4.5,6.3c-0.8,0.4-1.8,0.6-2.7,0.6c-0.2,0-0.3,0-0.4,0
					c-7.4,0-14.3-1-20-2.7c-0.4-0.1-1.4-0.4-1.4-0.9c0-0.3,0.1-0.5,0.3-0.7c0.1-0.1,0.2-0.2,0.4-0.3c1.3-1.1,5.4-4.1,13.1-7
					c2.7-1,6-2.3,9.6-3C44.8,23.2,52.5,22.1,48.4,31.5 M69,10.5c0.1-0.3,0.3-0.5,0.7-0.5c0.2,0,0.4,0,0.8,0.3
					c4.8,2.9,7.6,6.6,7.6,10.6c0,7.2-9.2,13.4-22.5,16.1c-0.9,0.2-1.4,0.2-1.6-0.1c-0.1-0.1-0.2-0.4,0-0.6c0.1-0.2,0.2-0.3,0.3-0.5
					c7.2-8.5,12.7-21,14.3-24.6C68.8,10.9,68.9,10.6,69,10.5 M33.2,10.2c0.7-1.6,1.8-4.9,4.5-6.3c0.8-0.4,1.8-0.6,2.7-0.6
					c0.2,0,0.3,0,0.4,0c7.4,0,14.3,1,20.1,2.8c0.4,0.1,1.3,0.3,1.3,0.9c0,0.3-0.2,0.5-0.3,0.7c-0.1,0.1-0.2,0.2-0.4,0.3
					c-1.3,1.1-5.4,4.1-13.1,7c-2.7,1.1-6.1,2.3-9.6,3.1C36.8,18.4,29.2,19.6,33.2,10.2 M25.8,4.8c0.9-0.2,1.5-0.2,1.7,0.1
					c0.1,0.1,0.2,0.4,0,0.6c-0.1,0.2-0.2,0.3-0.4,0.5C20,14.4,14.5,27,12.9,30.6c-0.1,0.2-0.2,0.5-0.3,0.7c-0.2,0.3-0.4,0.5-0.7,0.5
					c-0.2,0-0.4,0-0.8-0.3c-4.8-2.9-7.7-6.6-7.7-10.6C3.3,13.6,12.6,7.5,25.8,4.8"/>
			</defs>
			<use xlink:href="#SVGID_160_"  style="overflow:visible;fill:#FFFFFF;"/>
			<clipPath id="SVGID_161_">
				<use xlink:href="#SVGID_160_"  style="overflow:visible;"/>
			</clipPath>
			<path class="st79" d="M32.9,21.9L32.9,21.9c-1.5,0-2.3-0.2-2.8-0.4c-2-0.6-2.9-2.2-2.6-4.8c0.2-1.7,0.8-3.5,1.4-5.1
				c0.6-1.6,1.3-3.1,2.2-4.8c1.1-1.9,2-3.4,3-4.7c0.4-0.5,1.1-0.7,2.3-0.8c1.5-0.1,2.9-0.1,4.3-0.1c9.2,0,17.9,1.5,25,4.5
				c0.2,0.1,0.9,0.4,0.6,0.9C65,10,56.9,14.7,50,17.4C42.3,20.4,36.6,21.9,32.9,21.9z M40.8,1.6c-1.4,0-2.9,0-4.3,0.1
				c-1.1,0.1-1.8,0.3-2.1,0.7c-1,1.3-1.9,2.7-3,4.6c-0.9,1.6-1.6,3.2-2.2,4.7c-0.4,1-1.2,3.1-1.4,5c-0.2,2.4,0.6,4,2.4,4.5
				c0.5,0.1,1.3,0.4,2.7,0.4c3.6,0,9.3-1.5,17-4.5c6.9-2.7,14.9-7.3,16.3-10.5c0.1-0.2,0.1-0.3-0.5-0.6C58.6,3.2,50,1.6,40.8,1.6z"
				/>
		</g>
		<g>
			<defs>
				<path id="SVGID_162_" d="M40.8,41.7c22.5,0,40.8-9.3,40.8-20.8C81.5,9.3,63.3,0,40.8,0C18.2,0,0,9.3,0,20.8
					C0,32.3,18.2,41.7,40.8,41.7 M48.4,31.5c-0.7,1.6-1.8,4.9-4.5,6.3c-0.8,0.4-1.8,0.6-2.7,0.6c-0.2,0-0.3,0-0.4,0
					c-7.4,0-14.3-1-20-2.7c-0.4-0.1-1.4-0.4-1.4-0.9c0-0.3,0.1-0.5,0.3-0.7c0.1-0.1,0.2-0.2,0.4-0.3c1.3-1.1,5.4-4.1,13.1-7
					c2.7-1,6-2.3,9.6-3C44.8,23.2,52.5,22.1,48.4,31.5 M69,10.5c0.1-0.3,0.3-0.5,0.7-0.5c0.2,0,0.4,0,0.8,0.3
					c4.8,2.9,7.6,6.6,7.6,10.6c0,7.2-9.2,13.4-22.5,16.1c-0.9,0.2-1.4,0.2-1.6-0.1c-0.1-0.1-0.2-0.4,0-0.6c0.1-0.2,0.2-0.3,0.3-0.5
					c7.2-8.5,12.7-21,14.3-24.6C68.8,10.9,68.9,10.6,69,10.5 M33.2,10.2c0.7-1.6,1.8-4.9,4.5-6.3c0.8-0.4,1.8-0.6,2.7-0.6
					c0.2,0,0.3,0,0.4,0c7.4,0,14.3,1,20.1,2.8c0.4,0.1,1.3,0.3,1.3,0.9c0,0.3-0.2,0.5-0.3,0.7c-0.1,0.1-0.2,0.2-0.4,0.3
					c-1.3,1.1-5.4,4.1-13.1,7c-2.7,1.1-6.1,2.3-9.6,3.1C36.8,18.4,29.2,19.6,33.2,10.2 M25.8,4.8c0.9-0.2,1.5-0.2,1.7,0.1
					c0.1,0.1,0.2,0.4,0,0.6c-0.1,0.2-0.2,0.3-0.4,0.5C20,14.4,14.5,27,12.9,30.6c-0.1,0.2-0.2,0.5-0.3,0.7c-0.2,0.3-0.4,0.5-0.7,0.5
					c-0.2,0-0.4,0-0.8-0.3c-4.8-2.9-7.7-6.6-7.7-10.6C3.3,13.6,12.6,7.5,25.8,4.8"/>
			</defs>
			<use xlink:href="#SVGID_162_"  style="overflow:visible;fill:#FFFFFF;"/>
			<clipPath id="SVGID_163_">
				<use xlink:href="#SVGID_162_"  style="overflow:visible;"/>
			</clipPath>
			<path class="st80" d="M30.7,5.8c-0.6,0.8-1.2,1.7-1.8,2.5c-5.2,7.6-9.6,15.5-14.1,24.9l0.2,0.1C19.5,24,24,16.1,29.2,8.5
				c0.6-0.8,1.2-1.7,1.8-2.5c0.6-0.8,1.2-1.7,1.8-2.5l-0.3,0C31.9,4.2,31.3,5,30.7,5.8z"/>
		</g>
		<g>
			<defs>
				<path id="SVGID_164_" d="M40.8,41.7c22.5,0,40.8-9.3,40.8-20.8C81.5,9.3,63.3,0,40.8,0C18.2,0,0,9.3,0,20.8
					C0,32.3,18.2,41.7,40.8,41.7 M48.4,31.5c-0.7,1.6-1.8,4.9-4.5,6.3c-0.8,0.4-1.8,0.6-2.7,0.6c-0.2,0-0.3,0-0.4,0
					c-7.4,0-14.3-1-20-2.7c-0.4-0.1-1.4-0.4-1.4-0.9c0-0.3,0.1-0.5,0.3-0.7c0.1-0.1,0.2-0.2,0.4-0.3c1.3-1.1,5.4-4.1,13.1-7
					c2.7-1,6-2.3,9.6-3C44.8,23.2,52.5,22.1,48.4,31.5 M69,10.5c0.1-0.3,0.3-0.5,0.7-0.5c0.2,0,0.4,0,0.8,0.3
					c4.8,2.9,7.6,6.6,7.6,10.6c0,7.2-9.2,13.4-22.5,16.1c-0.9,0.2-1.4,0.2-1.6-0.1c-0.1-0.1-0.2-0.4,0-0.6c0.1-0.2,0.2-0.3,0.3-0.5
					c7.2-8.5,12.7-21,14.3-24.6C68.8,10.9,68.9,10.6,69,10.5 M33.2,10.2c0.7-1.6,1.8-4.9,4.5-6.3c0.8-0.4,1.8-0.6,2.7-0.6
					c0.2,0,0.3,0,0.4,0c7.4,0,14.3,1,20.1,2.8c0.4,0.1,1.3,0.3,1.3,0.9c0,0.3-0.2,0.5-0.3,0.7c-0.1,0.1-0.2,0.2-0.4,0.3
					c-1.3,1.1-5.4,4.1-13.1,7c-2.7,1.1-6.1,2.3-9.6,3.1C36.8,18.4,29.2,19.6,33.2,10.2 M25.8,4.8c0.9-0.2,1.5-0.2,1.7,0.1
					c0.1,0.1,0.2,0.4,0,0.6c-0.1,0.2-0.2,0.3-0.4,0.5C20,14.4,14.5,27,12.9,30.6c-0.1,0.2-0.2,0.5-0.3,0.7c-0.2,0.3-0.4,0.5-0.7,0.5
					c-0.2,0-0.4,0-0.8-0.3c-4.8-2.9-7.7-6.6-7.7-10.6C3.3,13.6,12.6,7.5,25.8,4.8"/>
			</defs>
			<use xlink:href="#SVGID_164_"  style="overflow:visible;fill:#FFFFFF;"/>
			<clipPath id="SVGID_165_">
				<use xlink:href="#SVGID_164_"  style="overflow:visible;"/>
			</clipPath>
			<path class="st81" d="M50.8,35.9c0.6-0.8,1.2-1.7,1.8-2.5c5.1-7.5,9.6-15.4,14-24.7l-0.2,0c-4.4,9.2-8.8,17.1-13.9,24.6
				c-0.6,0.8-1.2,1.7-1.8,2.5c-0.5,0.8-1.1,1.5-1.6,2.3h0.3C49.8,37.3,50.3,36.6,50.8,35.9z"/>
		</g>
		<g>
			<defs>
				<path id="SVGID_166_" d="M40.8,41.7c22.5,0,40.8-9.3,40.8-20.8C81.5,9.3,63.3,0,40.8,0C18.2,0,0,9.3,0,20.8
					C0,32.3,18.2,41.7,40.8,41.7 M48.4,31.5c-0.7,1.6-1.8,4.9-4.5,6.3c-0.8,0.4-1.8,0.6-2.7,0.6c-0.2,0-0.3,0-0.4,0
					c-7.4,0-14.3-1-20-2.7c-0.4-0.1-1.4-0.4-1.4-0.9c0-0.3,0.1-0.5,0.3-0.7c0.1-0.1,0.2-0.2,0.4-0.3c1.3-1.1,5.4-4.1,13.1-7
					c2.7-1,6-2.3,9.6-3C44.8,23.2,52.5,22.1,48.4,31.5 M69,10.5c0.1-0.3,0.3-0.5,0.7-0.5c0.2,0,0.4,0,0.8,0.3
					c4.8,2.9,7.6,6.6,7.6,10.6c0,7.2-9.2,13.4-22.5,16.1c-0.9,0.2-1.4,0.2-1.6-0.1c-0.1-0.1-0.2-0.4,0-0.6c0.1-0.2,0.2-0.3,0.3-0.5
					c7.2-8.5,12.7-21,14.3-24.6C68.8,10.9,68.9,10.6,69,10.5 M33.2,10.2c0.7-1.6,1.8-4.9,4.5-6.3c0.8-0.4,1.8-0.6,2.7-0.6
					c0.2,0,0.3,0,0.4,0c7.4,0,14.3,1,20.1,2.8c0.4,0.1,1.3,0.3,1.3,0.9c0,0.3-0.2,0.5-0.3,0.7c-0.1,0.1-0.2,0.2-0.4,0.3
					c-1.3,1.1-5.4,4.1-13.1,7c-2.7,1.1-6.1,2.3-9.6,3.1C36.8,18.4,29.2,19.6,33.2,10.2 M25.8,4.8c0.9-0.2,1.5-0.2,1.7,0.1
					c0.1,0.1,0.2,0.4,0,0.6c-0.1,0.2-0.2,0.3-0.4,0.5C20,14.4,14.5,27,12.9,30.6c-0.1,0.2-0.2,0.5-0.3,0.7c-0.2,0.3-0.4,0.5-0.7,0.5
					c-0.2,0-0.4,0-0.8-0.3c-4.8-2.9-7.7-6.6-7.7-10.6C3.3,13.6,12.6,7.5,25.8,4.8"/>
			</defs>
			<use xlink:href="#SVGID_166_"  style="overflow:visible;fill:#FFFFFF;"/>
			<clipPath id="SVGID_167_">
				<use xlink:href="#SVGID_166_"  style="overflow:visible;"/>
			</clipPath>
			<path class="st82" d="M40.8,40.3c-9.2,0-17.9-1.5-25-4.5c-0.2-0.1-0.9-0.4-0.6-0.9c1.4-3.3,9.5-7.9,16.4-10.6
				c7.6-3,13.4-4.5,17-4.5c1.5,0,2.3,0.3,2.8,0.4c2,0.6,2.9,2.2,2.6,4.8c-0.2,1.7-0.8,3.5-1.4,5.1c-0.6,1.5-1.3,3.1-2.2,4.8
				c-1.1,1.9-2,3.4-3,4.7c-0.4,0.5-1.1,0.7-2.3,0.8C43.7,40.3,42.2,40.3,40.8,40.3z M48.6,20c-3.6,0-9.3,1.5-17,4.5
				c-6.9,2.7-14.9,7.3-16.3,10.5c-0.1,0.2-0.1,0.3,0.5,0.6c7.1,2.9,15.7,4.4,24.9,4.4c1.4,0,2.9,0,4.3-0.1c1.1-0.1,1.8-0.3,2.1-0.7
				c1-1.2,1.9-2.7,3-4.6c0.9-1.6,1.6-3.2,2.2-4.7c0.6-1.5,1.2-3.3,1.4-5c0.2-2.4-0.6-4-2.5-4.5C50.9,20.3,50.1,20,48.6,20z"/>
		</g>
		<g>
			<defs>
				<path id="SVGID_168_" d="M40.8,41.7c22.5,0,40.8-9.3,40.8-20.8C81.5,9.3,63.3,0,40.8,0C18.2,0,0,9.3,0,20.8
					C0,32.3,18.2,41.7,40.8,41.7 M48.4,31.5c-0.7,1.6-1.8,4.9-4.5,6.3c-0.8,0.4-1.8,0.6-2.7,0.6c-0.2,0-0.3,0-0.4,0
					c-7.4,0-14.3-1-20-2.7c-0.4-0.1-1.4-0.4-1.4-0.9c0-0.3,0.1-0.5,0.3-0.7c0.1-0.1,0.2-0.2,0.4-0.3c1.3-1.1,5.4-4.1,13.1-7
					c2.7-1,6-2.3,9.6-3C44.8,23.2,52.5,22.1,48.4,31.5 M69,10.5c0.1-0.3,0.3-0.5,0.7-0.5c0.2,0,0.4,0,0.8,0.3
					c4.8,2.9,7.6,6.6,7.6,10.6c0,7.2-9.2,13.4-22.5,16.1c-0.9,0.2-1.4,0.2-1.6-0.1c-0.1-0.1-0.2-0.4,0-0.6c0.1-0.2,0.2-0.3,0.3-0.5
					c7.2-8.5,12.7-21,14.3-24.6C68.8,10.9,68.9,10.6,69,10.5 M33.2,10.2c0.7-1.6,1.8-4.9,4.5-6.3c0.8-0.4,1.8-0.6,2.7-0.6
					c0.2,0,0.3,0,0.4,0c7.4,0,14.3,1,20.1,2.8c0.4,0.1,1.3,0.3,1.3,0.9c0,0.3-0.2,0.5-0.3,0.7c-0.1,0.1-0.2,0.2-0.4,0.3
					c-1.3,1.1-5.4,4.1-13.1,7c-2.7,1.1-6.1,2.3-9.6,3.1C36.8,18.4,29.2,19.6,33.2,10.2 M25.8,4.8c0.9-0.2,1.5-0.2,1.7,0.1
					c0.1,0.1,0.2,0.4,0,0.6c-0.1,0.2-0.2,0.3-0.4,0.5C20,14.4,14.5,27,12.9,30.6c-0.1,0.2-0.2,0.5-0.3,0.7c-0.2,0.3-0.4,0.5-0.7,0.5
					c-0.2,0-0.4,0-0.8-0.3c-4.8-2.9-7.7-6.6-7.7-10.6C3.3,13.6,12.6,7.5,25.8,4.8"/>
			</defs>
			<use xlink:href="#SVGID_168_"  style="overflow:visible;fill:#FFFFFF;"/>
			<clipPath id="SVGID_169_">
				<use xlink:href="#SVGID_168_"  style="overflow:visible;"/>
			</clipPath>
			<path class="st83" d="M33.5,2c0-0.1-0.2-0.2-0.4-0.2h0c-7.7,0.8-14.8,2.7-20.4,5.6C5.3,11,1.3,15.8,1.3,20.8
				c0,5.1,4,9.9,11.2,13.5c0.3,0.2,0.6,0.3,1,0.5c0.1,0.1,0.3,0.1,0.4,0.1c0.3,0,0.5-0.1,0.6-0.4c0.2-0.4,0.4-0.8,0.6-1.2l-0.2-0.1
				c-0.2,0.4-0.4,0.8-0.6,1.2c-0.1,0.2-0.4,0.3-0.7,0.2c-0.3-0.2-0.6-0.3-1-0.5C5.5,30.5,1.6,25.8,1.6,20.8s3.9-9.7,11.1-13.3
				C18.3,4.7,25.3,2.8,33,2c0.2,0,0.2,0,0.2,0.1c0,0,0,0.1-0.1,0.2c-0.2,0.4-0.5,0.8-0.8,1.2l0.3,0c0.2-0.3,0.5-0.7,0.7-1.1
				C33.5,2.2,33.5,2,33.5,2z"/>
		</g>
		<g>
			<defs>
				<path id="SVGID_170_" d="M40.8,41.7c22.5,0,40.8-9.3,40.8-20.8C81.5,9.3,63.3,0,40.8,0C18.2,0,0,9.3,0,20.8
					C0,32.3,18.2,41.7,40.8,41.7 M48.4,31.5c-0.7,1.6-1.8,4.9-4.5,6.3c-0.8,0.4-1.8,0.6-2.7,0.6c-0.2,0-0.3,0-0.4,0
					c-7.4,0-14.3-1-20-2.7c-0.4-0.1-1.4-0.4-1.4-0.9c0-0.3,0.1-0.5,0.3-0.7c0.1-0.1,0.2-0.2,0.4-0.3c1.3-1.1,5.4-4.1,13.1-7
					c2.7-1,6-2.3,9.6-3C44.8,23.2,52.5,22.1,48.4,31.5 M69,10.5c0.1-0.3,0.3-0.5,0.7-0.5c0.2,0,0.4,0,0.8,0.3
					c4.8,2.9,7.6,6.6,7.6,10.6c0,7.2-9.2,13.4-22.5,16.1c-0.9,0.2-1.4,0.2-1.6-0.1c-0.1-0.1-0.2-0.4,0-0.6c0.1-0.2,0.2-0.3,0.3-0.5
					c7.2-8.5,12.7-21,14.3-24.6C68.8,10.9,68.9,10.6,69,10.5 M33.2,10.2c0.7-1.6,1.8-4.9,4.5-6.3c0.8-0.4,1.8-0.6,2.7-0.6
					c0.2,0,0.3,0,0.4,0c7.4,0,14.3,1,20.1,2.8c0.4,0.1,1.3,0.3,1.3,0.9c0,0.3-0.2,0.5-0.3,0.7c-0.1,0.1-0.2,0.2-0.4,0.3
					c-1.3,1.1-5.4,4.1-13.1,7c-2.7,1.1-6.1,2.3-9.6,3.1C36.8,18.4,29.2,19.6,33.2,10.2 M25.8,4.8c0.9-0.2,1.5-0.2,1.7,0.1
					c0.1,0.1,0.2,0.4,0,0.6c-0.1,0.2-0.2,0.3-0.4,0.5C20,14.4,14.5,27,12.9,30.6c-0.1,0.2-0.2,0.5-0.3,0.7c-0.2,0.3-0.4,0.5-0.7,0.5
					c-0.2,0-0.4,0-0.8-0.3c-4.8-2.9-7.7-6.6-7.7-10.6C3.3,13.6,12.6,7.5,25.8,4.8"/>
			</defs>
			<use xlink:href="#SVGID_170_"  style="overflow:visible;fill:#FFFFFF;"/>
			<clipPath id="SVGID_171_">
				<use xlink:href="#SVGID_170_"  style="overflow:visible;"/>
			</clipPath>
			<path class="st84" d="M69,7.3c-0.3-0.2-0.7-0.3-1-0.5c-0.4-0.2-0.8-0.1-1,0.3c-0.2,0.5-0.5,1-0.7,1.5l0.2,0
				c0.2-0.5,0.4-1,0.7-1.4C67.3,7.1,67.4,7,67.6,7c0.1,0,0.2,0,0.3,0.1c0.3,0.2,0.7,0.3,1,0.5C76,11.2,80,15.9,80,20.9
				S76,30.5,68.9,34.2c-5.6,2.8-12.5,4.7-20.2,5.5c-0.2,0-0.5,0-0.3-0.3c0.3-0.5,0.6-1,1-1.4H49c-0.3,0.4-0.6,0.8-0.9,1.3
				c-0.1,0.2-0.1,0.3-0.1,0.4c0.1,0.2,0.4,0.2,0.6,0.2c7.7-0.8,14.7-2.7,20.3-5.5c7.2-3.7,11.2-8.5,11.2-13.5
				C80.2,15.8,76.2,11,69,7.3z"/>
		</g>
	</g>
</g>
</svg>
