<?xml version="1.0" encoding="utf-8"?>
<!-- Generator: Adobe Illustrator 25.1.0, SVG Export Plug-In . SVG Version: 6.00 Build 0)  -->
<svg version="1.1" id="레이어_2_1_" xmlns="http://www.w3.org/2000/svg" xmlns:xlink="http://www.w3.org/1999/xlink" x="0px"
	 y="0px" viewBox="0 0 81.5 41.7" style="enable-background:new 0 0 81.5 41.7;" xml:space="preserve">
<style type="text/css">
	.st0{fill:#002F6C;}
</style>
<path class="st0" d="M40.7,41.7c22.5,0,40.8-9.3,40.8-20.9C81.5,9.3,63.3,0,40.7,0C18.2,0,0,9.3,0,20.8C0,32.4,18.2,41.7,40.7,41.7
	 M48.4,31.5c-0.7,1.6-1.8,4.9-4.5,6.3c-0.8,0.4-1.8,0.6-2.7,0.6c-0.2,0-0.3,0-0.4,0c-7.5,0-14.5-1-20.4-2.8c-0.1,0-0.2-0.1-0.2-0.1
	c-0.5-0.2-0.8-0.4-0.8-0.7c0-0.3,0.1-0.5,0.3-0.7c0.1-0.1,0.2-0.2,0.4-0.3c1.4-1.1,5.4-4.1,13.1-7c2.7-1,6.1-2.3,9.6-3.1
	C44.8,23.2,52.5,22,48.4,31.5 M69,10.4c0.1-0.3,0.3-0.5,0.7-0.5c0.2,0,0.5,0,0.8,0.3c4.8,2.9,7.6,6.6,7.6,10.6
	c0,7.2-9.3,13.4-22.5,16.1c-0.9,0.2-1.4,0.2-1.6-0.1c-0.1-0.1-0.2-0.4,0-0.6c0.1-0.1,0.2-0.3,0.4-0.5c7.2-8.5,12.7-21,14.3-24.6
	C68.8,10.8,68.9,10.6,69,10.4 M33.2,10.2c0.7-1.6,1.8-4.9,4.5-6.3c0.8-0.4,1.8-0.6,2.7-0.6c0.2,0,0.3,0,0.4,0c7.5,0,14.5,1,20.4,2.8
	c0,0,0.2,0.1,0.2,0.1c0.5,0.2,0.8,0.4,0.8,0.7c0,0.3-0.1,0.5-0.3,0.7c-0.1,0.1-0.2,0.2-0.4,0.3c-1.4,1.1-5.4,4.1-13.1,7
	c-2.7,1-6.1,2.3-9.6,3.1C36.8,18.4,29.1,19.6,33.2,10.2 M25.8,4.7c0.9-0.2,1.4-0.2,1.6,0.1c0.1,0.1,0.2,0.4,0,0.6
	c-0.1,0.2-0.2,0.3-0.4,0.5c-7.2,8.5-12.7,21-14.3,24.6c-0.1,0.2-0.2,0.5-0.3,0.7c-0.1,0.3-0.3,0.5-0.7,0.5c-0.2,0-0.5,0-0.9-0.3
	c-4.8-2.9-7.6-6.6-7.6-10.6C3.3,13.6,12.6,7.4,25.8,4.7"/>
</svg>
